<?xml version="1.0" encoding="UTF-8" standalone="no"?>
<!-- Generator: Adobe Illustrator 22.0.1, SVG Export Plug-In . SVG Version: 6.00 Build 0)  -->

<svg
   version="1.1"
   id="Layer_1"
   x="0px"
   y="0px"
   viewBox="0 0 675.72662 623.88666"
   xml:space="preserve"
   sodipodi:docname="1646656079PixelArt-Heart-1.svg"
   width="675.72662"
   height="623.88666"
   inkscape:version="1.3 (0e150ed6c4, 2023-07-21)"
   xmlns:inkscape="http://www.inkscape.org/namespaces/inkscape"
   xmlns:sodipodi="http://sodipodi.sourceforge.net/DTD/sodipodi-0.dtd"
   xmlns="http://www.w3.org/2000/svg"
   xmlns:svg="http://www.w3.org/2000/svg"><defs
   id="defs1" /><sodipodi:namedview
   id="namedview1"
   pagecolor="#ffffff"
   bordercolor="#000000"
   borderopacity="0.25"
   inkscape:showpageshadow="2"
   inkscape:pageopacity="0.0"
   inkscape:pagecheckerboard="0"
   inkscape:deskcolor="#d1d1d1"
   inkscape:zoom="1.3668981"
   inkscape:cx="337.62574"
   inkscape:cy="280.56224"
   inkscape:window-width="2560"
   inkscape:window-height="1377"
   inkscape:window-x="1912"
   inkscape:window-y="-8"
   inkscape:window-maximized="1"
   inkscape:current-layer="Layer_1" />&#10;<style
   type="text/css"
   id="style1">&#10;	.st0{fill:#DC1419;}&#10;</style>&#10;<path
   class="st0"
   d="m 671.81718,106.3 c -8.2,-8.5 -24.7,-1.8 -37.8,-3 -0.3,0 -0.9,0 -1.2,0 -7.9,0.9 -11.6,-1.8 -11.3,-10.4 0.6,-10.7 -0.3,-21.6 0.3,-32.3 0.3,-7.3 -2.4,-9.5 -9.5,-9.1 -11.3,0.3 -22.6,-0.3 -33.8,0.3 -6.4,0.3 -8.8,-2.1 -8.5,-8.5 0.3,-11.3 0,-22.6 0.3,-33.8 0.3,-6.7 -2.1,-9.5 -9.1,-9.5 -46,0.3 -92.1,0.3 -137.8,0 -7.6,0 -9.1,3 -8.8,9.8 0.3,11.3 0,22.6 0.3,33.8 0.3,6.4 -1.8,8.8 -8.5,8.5 -9.8,-0.3 -19.8,0.3 -29.9,-0.3 -10.1,-0.6 -14.9,1.8 -14,13.1 0.9,9.8 0,19.8 0.3,29.9 0.3,6.7 -1.8,9.8 -9.1,9.5 -10.7,-0.6 -21.6,-0.6 -32.3,0 -7.6,0.3 -10.7,-2.1 -10.1,-9.8 0.6,-10.7 0,-21.6 0.3,-32.3 0.3,-7.6 -2.4,-10.4 -10.1,-10.1 -11.3,0.6 -22.6,-0.3 -33.8,0 -6.4,0.3 -8.8,-2.1 -8.8,-8.5 0.3,-11.6 0,-23.5 0.3,-35.1 0,-5.5 -1.8,-8.2 -7.6,-7.9 -46.3,0 -93,0.3 -139.3,0 -6.4,0 -8.8,2.1 -8.5,8.5 0.3,10.7 -0.3,21.6 0.3,32.3 0.3,7.9 -1.8,11.6 -10.400001,11 -9.5,-0.6 -18.9,0.6 -28.4,-0.3 -9.8,-0.9 -14,1.5 -13.1,12.2 0.9,9.5 -0.3,18.9 0.3,28.4 0.6,8.5 -1.5,12.5 -11,11.9 -9.5,-0.9 -18.9,0.3 -28.4,-0.3 -9.8,-0.6 -13.39999999,2.4 -13.09999999,12.8 0.6,30.2 0.3,60.4 0.3,90.6 v 0 c 0,24.4 0,48.8 0,72.9 0,31.1 0,31.1 31.69999999,31.1 20.4,0 20.4,0 20.1,20.7 0,31.1 0,31.1 30.2,31.1 3.7,0 7.3,0.3 10.7,0 8.500001,-0.9 10.700001,2.7 10.700001,11 0,13.4 -6.100001,32 2.7,38.4 9.1,6.7 26.8,2.7 40.9,1.8 6.7,-0.6 7.9,1.5 7.9,6.7 0,9.1 0,18 0,27.1 0,18.9 0,18.9 18.3,18.9 33.8,0 33.8,0 33.5,34.2 -0.3,18 -3,18 16.8,18 34.8,0 35.4,0.3 34.8,35.1 -0.3,13.4 3,18.3 17.1,17.1 11.6,-1.2 27.1,-5.2 33.8,2.1 5.8,6.1 2.7,21.6 1.5,32.6 -1.5,13.7 2.7,18.6 16.8,16.8 11,-1.5 25.9,3.4 32.6,-2.1 7.9,-6.7 3,-22 2.4,-33.5 -0.6,-12.8 2.7,-17.7 16.5,-16.5 11,1.2 25.6,4 32.6,-1.5 8.5,-6.7 3.4,-22 2.7,-33.2 -0.6,-13.4 3.4,-18 17.1,-17.1 11,0.9 25.3,5.2 32.6,-1.8 7.3,-7 2.1,-21.3 2.4,-32.3 0.6,-17.7 0.3,-17.7 18.6,-17.4 5.5,0 11,-0.6 16.2,0.3 13.1,1.8 18,-2.4 17.4,-16.8 -1.5,-35.4 -0.6,-36 35.4,-35.1 13.1,0.3 18.3,-2.4 16.8,-16.8 -1.2,-11 -5.2,-25.3 1.8,-32.6 7,-7.6 21.3,-1.5 32.3,-2.4 1.2,0 2.7,-0.3 4,0 11.3,2.1 13.4,-3.4 13.1,-13.4 -0.3,-12.2 -5.2,-27.4 1.8,-35.4 7.9,-8.5 23.8,-2.7 36,-2.7 11,0 14.6,-2.7 14.3,-14 -0.6,-51.5 0,-102.8 -0.3,-154.3 -0.2,-14.3 5,-30.5 -2.3,-38.4 z m -465,39.9 c 0.3,7 -2.7,9.5 -9.5,9.1 -9.8,-0.3 -19.8,0.3 -29.9,-0.3 -9.8,-0.6 -13.7,2.4 -13.1,12.8 0.9,11.3 0.3,22.6 0.3,33.8 0,10.7 0,21.6 0,32.3 v 0 c 0,22.6 -0.3,45.1 0,67.7 0,7 -1.8,9.8 -9.1,9.1 -11.3,-0.6 -22.6,-0.6 -33.8,0 -7.6,0.3 -8.8,-2.7 -8.8,-9.5 0.3,-45.4 0.3,-91.2 0,-136.6 0,-7.9 2.4,-10.7 10.1,-10.1 8.5,0.6 17.1,0 25.6,1.5 11.6,2.1 15.9,-3 16.2,-13.1 0.3,-10.4 0.3,-20.7 0,-31.1 -0.3,-6.7 2.1,-9.1 8.5,-8.5 0.9,0 1.8,0 2.7,0 52.4,1.8 38.9,-10.7 40.8,42.9 z"
   id="path1" />&#10;</svg>
