<?xml version="1.0" encoding="UTF-8" standalone="no"?>
<!-- Created with Inkscape (http://www.inkscape.org/) -->

<svg
   width="117.98766mm"
   height="139.33537mm"
   viewBox="0 0 117.98766 139.33537"
   version="1.1"
   id="svg1"
   xml:space="preserve"
   inkscape:version="1.3 (0e150ed6c4, 2023-07-21)"
   sodipodi:docname="ufo.svg"
   xmlns:inkscape="http://www.inkscape.org/namespaces/inkscape"
   xmlns:sodipodi="http://sodipodi.sourceforge.net/DTD/sodipodi-0.dtd"
   xmlns="http://www.w3.org/2000/svg"
   xmlns:svg="http://www.w3.org/2000/svg"><sodipodi:namedview
     id="namedview1"
     pagecolor="#ffffff"
     bordercolor="#000000"
     borderopacity="0.25"
     inkscape:showpageshadow="2"
     inkscape:pageopacity="0.0"
     inkscape:pagecheckerboard="0"
     inkscape:deskcolor="#d1d1d1"
     inkscape:document-units="mm"
     inkscape:zoom="0.52604868"
     inkscape:cx="382.09391"
     inkscape:cy="326.96594"
     inkscape:window-width="1435"
     inkscape:window-height="1212"
     inkscape:window-x="2652"
     inkscape:window-y="185"
     inkscape:window-maximized="0"
     inkscape:current-layer="layer1" /><defs
     id="defs1"><linearGradient
       x1="0"
       y1="0"
       x2="1"
       y2="0"
       gradientUnits="userSpaceOnUse"
       gradientTransform="matrix(4918.61,21723.8,21723.8,-4918.61,16377.1,3872.7)"
       spreadMethod="pad"
       id="linearGradient7"><stop
         style="stop-color:#1000e3;stop-opacity:0;"
         offset="0"
         id="stop3" /><stop
         style="stop-color:#1000e3;stop-opacity:0.31339031;"
         offset="0.55225581"
         id="stop5" /><stop
         style="stop-color:#1000e3;stop-opacity:0.44729346;"
         offset="0.81614524"
         id="stop6" /><stop
         style="stop-color:#1000e3;stop-opacity:0.79215688;"
         offset="1"
         id="stop7" /></linearGradient><clipPath
       clipPathUnits="userSpaceOnUse"
       id="clipPath7"><path
         d="M 23584.1,4475 H 9442.8 L 16165,22030.7 c 176.7,-25.7 351.1,-39.3 516.4,-39.3 414.3,0 770.7,86 960.1,284.1 237.9,-50.8 480.2,-99.1 726.6,-145.1 26.5,-232.4 218.3,-458.1 552.7,-645.4 342.8,-192.1 808.9,-331.9 1312.6,-393.7 185,-22.6 367.7,-33.9 543.6,-33.9 302.7,0 585.3,33.3 825.1,98.8 369.7,101.1 610.3,273.7 692.2,492.8 250.6,-15 498,-26.6 741.5,-34.8 99.3,-172.3 302.2,-319.8 593.9,-427.9 192.8,-71.4 416.8,-123.5 659.1,-154.4 L 23584.1,4475"
         transform="translate(0,-2.5e-4)"
         id="path7" /></clipPath></defs><g
     inkscape:label="Warstwa 1"
     inkscape:groupmode="layer"
     id="layer1"
     transform="translate(-53.071639,-53.627089)"><g
       id="group-R5"
       transform="matrix(0.03272944,0,0,0.03272944,21.1112,37.041922)"><path
         id="path3"
         d="M 23584.1,4475 H 9442.8 L 16165,22030.7 c 176.7,-25.7 351.1,-39.3 516.4,-39.3 414.3,0 770.7,86 960.1,284.1 237.9,-50.8 480.2,-99.1 726.6,-145.1 26.5,-232.4 218.3,-458.1 552.7,-645.4 342.8,-192.1 808.9,-331.9 1312.6,-393.7 185,-22.6 367.7,-33.9 543.6,-33.9 302.7,0 585.3,33.3 825.1,98.8 369.7,101.1 610.3,273.7 692.2,492.8 250.6,-15 498,-26.6 741.5,-34.8 99.3,-172.3 302.2,-319.8 593.9,-427.9 192.8,-71.4 416.8,-123.5 659.1,-154.4 L 23584.1,4475"
         style="opacity:1;fill:url(#linearGradient7);fill-opacity:1;fill-rule:nonzero;stroke:none"
         transform="matrix(0.13333333,0,0,-0.13486457,0,5367.4423)"
         clip-path="url(#clipPath7)" /><path
         id="path8"
         d="m 18542.3,22224.6 c -50,-407.9 716.6,-837.5 1712.3,-959.5 995.7,-122.2 1843.4,109.5 1893.4,517.4 50,407.8 -716.6,837.4 -1712.3,959.5 -995.7,122.1 -1843.4,-109.6 -1893.4,-517.4"
         style="fill:#e1e1e1;fill-opacity:1;fill-rule:nonzero;stroke:none"
         transform="matrix(0.13333333,0,0,-0.13333333,0,5333.3333)" /><path
         id="path9"
         d="m 18542.3,22224.6 c -50,-407.9 716.6,-837.5 1712.3,-959.5 995.7,-122.2 1843.4,109.5 1893.4,517.4 50,407.8 -716.6,837.4 -1712.3,959.5 -995.7,122.1 -1843.4,-109.6 -1893.4,-517.4"
         style="fill:#e1e1e1;fill-opacity:1;fill-rule:nonzero;stroke:none"
         transform="matrix(0.13333333,0,0,-0.13333333,0,5333.3333)" /><path
         id="path10"
         d="m 21284,21561.3 c -286,0 -624.4,21.1 -985.1,65.4 -589.9,72.3 -1107.1,190.2 -1425.8,313.5 -46.8,40.4 -84.2,80.7 -110.8,119.5 507.7,-87.7 1030,-164.7 1561.6,-229.9 531.5,-65.2 1057,-116.6 1570.7,-154.2 -35.2,-31.3 -81.1,-61.3 -136.4,-89.2 -131.7,-16.6 -292.4,-25.1 -474.2,-25.1"
         style="fill:#a69cab;fill-opacity:1;fill-rule:nonzero;stroke:none"
         transform="matrix(0.13333333,0,0,-0.13333333,0,5333.3333)" /><path
         id="path11"
         d="m 18716,22203.3 c -14.3,-116.8 129.7,-275 375.9,-413 304,-170.4 724.5,-295.2 1184,-351.5 459.5,-56.4 897.7,-36.8 1233.9,55.1 272.2,74.3 450.2,193.1 464.5,309.8 28.2,230.3 -565.4,642.6 -1559.9,764.5 -994.4,121.9 -1670.1,-134.7 -1698.4,-365 v 0.1 m 2061,-1145.9 c -175.9,0 -358.6,11.3 -543.6,33.9 -503.7,61.8 -969.8,201.6 -1312.6,393.7 -389.5,218.2 -585.6,488.4 -552.2,760.8 v 0.1 c 72.7,592.5 1130.2,787.2 2088.4,669.8 958.2,-117.6 1937.3,-562.1 1864.7,-1154.5 -33.4,-272.4 -289,-487.3 -719.6,-605 -239.8,-65.5 -522.4,-98.8 -825.1,-98.8"
         style="fill:#371b45;fill-opacity:1;fill-rule:nonzero;stroke:none"
         transform="matrix(0.13333333,0,0,-0.13333333,0,5333.3333)" /><path
         id="path12"
         d="m 14103.9,23534.7 c -112.8,-395.1 577.8,-938.6 1542.4,-1213.8 964.6,-275.3 1838,-178.2 1950.8,216.9 112.7,395.2 -577.8,938.6 -1542.5,1213.9 -964.6,275.3 -1838,178.1 -1950.7,-217"
         style="fill:#e1e1e1;fill-opacity:1;fill-rule:nonzero;stroke:none"
         transform="matrix(0.13333333,0,0,-0.13333333,0,5333.3333)" /><path
         id="path13"
         d="m 14272.1,23486.7 c -32.2,-113.2 85.5,-291.8 307.2,-466.4 273.9,-215.5 669.9,-404.1 1115,-531.2 963.6,-274.9 1670.9,-126.3 1734.5,96.8 32.3,113.1 -85.4,291.8 -307.1,466.3 -273.9,215.5 -669.9,404.2 -1115.1,531.2 -445.2,127.1 -881.2,175.8 -1227.4,137.3 -280.5,-31.2 -474.7,-120.9 -507.1,-234 m 2409.3,-1495.3 c -342.1,0 -723.6,58.6 -1083.1,161.2 -487.9,139.2 -926.6,349.7 -1235.4,592.7 -350.9,276.1 -502.6,573.5 -427.3,837.4 75.3,264 361.2,436.5 804.9,485.8 390.5,43.5 874.2,-9.3 1362.1,-148.5 487.9,-139.3 926.7,-349.8 1235.5,-592.8 350.9,-276 502.6,-573.5 427.3,-837.4 -100.4,-351.7 -542.9,-498.4 -1084,-498.4"
         style="fill:#371b45;fill-opacity:1;fill-rule:nonzero;stroke:none"
         transform="matrix(0.13333333,0,0,-0.13333333,0,5333.3333)" /><path
         id="path14"
         d="m 26771.5,21981.5 c 14,-410.7 -787.5,-771.2 -1790,-805.3 -1002.6,-34 -1826.6,271.3 -1840.6,681.9 -13.9,410.7 787.5,771.2 1790,805.3 1002.6,34 1826.6,-271.3 1840.6,-681.9"
         style="fill:#e1e1e1;fill-opacity:1;fill-rule:nonzero;stroke:none"
         transform="matrix(0.13333333,0,0,-0.13333333,0,5333.3333)" /><path
         id="path15"
         d="m 25084.9,22491 c -49,0 -98.3,-0.9 -148,-2.5 -462.7,-15.8 -892.6,-103.2 -1210.4,-246.2 -257.3,-115.7 -414.7,-260.7 -410.7,-378.3 4,-117.6 170.9,-251.5 435.5,-349.5 326.8,-121.1 761.6,-179.2 1224.2,-163.4 462.7,15.8 892.5,103.2 1210.4,246.2 257.3,115.7 414.7,260.6 410.7,378.2 v 0 c -4,117.6 -170.9,251.6 -435.5,349.6 -291.6,108.1 -669.4,165.9 -1076.2,165.9 m -255.8,-1492.4 c -448.5,0 -869.5,65.5 -1199.4,187.7 -418.7,155.1 -654.3,391.5 -663.7,665.8 -9.3,274.3 209.8,526.3 616.9,709.4 358.4,161.2 835,259.5 1342.1,276.8 507.4,17.2 989.3,-48.5 1357.7,-185 418.7,-155.1 654.3,-391.6 663.7,-665.9 9.3,-274.3 -209.8,-526.2 -616.9,-709.4 -358.4,-161.2 -835,-259.4 -1342.1,-276.7 -53.1,-1.8 -105.9,-2.7 -158.3,-2.7"
         style="fill:#371b45;fill-opacity:1;fill-rule:nonzero;stroke:none"
         transform="matrix(0.13333333,0,0,-0.13333333,0,5333.3333)" /><path
         id="path16"
         d="m 12517.5,25030.5 c -137.9,-1124.8 3366.6,-2480 7827.7,-3027 4460.9,-547 8189.1,-78.6 8327,1046.2 138,1124.8 -3366.6,2480.1 -7827.6,3027 -4461,547 -8189.1,78.6 -8327.1,-1046.2"
         style="fill:#989898;fill-opacity:1;fill-rule:nonzero;stroke:none"
         transform="matrix(0.13333333,0,0,-0.13333333,0,5333.3333)" /><path
         id="path17"
         d="m 12520.2,24882.2 c 25.6,-168.2 127.7,-340.7 297.7,-513.6 934.2,-950.5 3917.6,-1922.6 7527.2,-2365.2 3609.7,-442.6 6739.6,-220.1 7875.8,476.6 206.7,126.7 347.4,269.4 412.9,426.4 -217.4,688 -3647.9,1630.6 -7913.8,2153.7 -4266,523 -7822.7,437.2 -8199.8,-177.9"
         style="fill:#989898;fill-opacity:1;fill-rule:nonzero;stroke:none"
         transform="matrix(0.13333333,0,0,-0.13333333,0,5333.3333)" /><path
         id="path18"
         d="m 25442.2,22204.4 c -1395.5,0.1 -3143.7,112.3 -5030.3,343.6 -2848.5,349.3 -5324.3,885.5 -6720,1408.2 -129.2,71.4 -247,142.8 -352.6,213.5 2088.7,-527 4537.1,-972.3 7113.5,-1288.2 2524.1,-309.5 4958.2,-468.8 7081.5,-468.7 44.4,0 88.6,0 132.7,0.2 -119.7,-43.2 -251.1,-83.9 -393.8,-122 -500,-57.4 -1119.5,-86.6 -1831,-86.6"
         style="fill:#766c7b;fill-opacity:1;fill-rule:nonzero;stroke:none"
         transform="matrix(0.13333333,0,0,-0.13333333,0,5333.3333)" /><path
         id="path19"
         d="m 17291.3,26131 c -803.6,0 -1549.5,-41.1 -2209.6,-124.1 -1442.4,-181.2 -2336.1,-554.2 -2390.5,-997.7 -54.4,-443.5 722.7,-1021.3 2078.7,-1545.6 1465.3,-566.7 3452.9,-1023.6 5596.5,-1286.4 2143.7,-262.9 4182.8,-299.7 5741.6,-103.9 1442.5,181.3 2336.2,554.2 2390.5,997.7 54.4,443.5 -722.6,1021.3 -2078.6,1545.7 -1465.4,566.7 -3453,1023.5 -5596.6,1286.3 -1236,151.6 -2437.5,228 -3532,228 m 6607.3,-4531.6 c -1109.5,0 -2325.2,77.2 -3574.7,230.4 -2171.5,266.3 -4188.8,730.5 -5680.3,1307.3 -1103.9,426.9 -2399,1105.6 -2299.8,1914.7 99.2,809.1 1520,1154.9 2694.3,1302.4 1586.7,199.4 3656.3,162.5 5827.8,-103.7 2171.4,-266.3 4188.7,-730.6 5680.2,-1307.4 1104,-426.9 2399,-1105.6 2299.9,-1914.7 -99.3,-809.1 -1520,-1154.8 -2694.3,-1302.3 -673.7,-84.7 -1434.5,-126.7 -2253.1,-126.7"
         style="fill:#371b45;fill-opacity:1;fill-rule:nonzero;stroke:none"
         transform="matrix(0.13333333,0,0,-0.13333333,0,5333.3333)" /><path
         id="path20"
         d="m 7597.87,28076.1 c 0,0 -65.58,-534.8 -95.15,-776.1 -177.09,-1444.2 5630.38,-3344.7 12971.38,-4244.8 7341,-900.2 13435.6,-459 13612.7,985.3 31.4,255.8 95.1,776 95.1,776 L 7597.87,28076.1"
         style="fill:#e1e1e1;fill-opacity:1;fill-rule:nonzero;stroke:none"
         transform="matrix(0.13333333,0,0,-0.13333333,0,5333.3333)" /><path
         id="path21"
         d="m 27533.6,22762.7 c -2108.2,0 -4527.9,158.4 -7038.2,466.2 -3539.5,434 -6832.3,1112.6 -9271.9,1911 -3083,1008.9 -3513.76,1766 -3546.96,2062.5 901.61,-1366.2 6254.16,-2979.5 12841.76,-3787.2 2577.7,-316.1 5000.9,-466.7 7069,-466.7 3217.4,0 5574.1,364.8 6307.3,1039.3 -103.8,-279.7 -704.6,-910.4 -3940.3,-1144.6 -744.5,-53.8 -1556.4,-80.5 -2420.7,-80.5"
         style="fill:#a69cab;fill-opacity:1;fill-rule:nonzero;stroke:none"
         transform="matrix(0.13333333,0,0,-0.13333333,0,5333.3333)" /><path
         id="path22"
         d="m 27534.3,22412.8 c -2123.3,-0.1 -4557.4,159.2 -7081.5,468.7 -3561.3,436.6 -6877.7,1120.5 -9338.1,1925.7 -1795.6,587.6 -3909.93,1500.8 -3785.69,2514.1 l 95.17,776.1 347.41,-42.6 -95.17,-776.1 c -27.04,-220.6 148.8,-1026.7 3547.08,-2138.8 2439.6,-798.4 5732.4,-1477 9271.9,-1911 3539.5,-434 6898.7,-570.9 9458.9,-385.7 3566.3,258.1 3931.7,998 3958.8,1218.6 l 95.1,776 347.4,-42.6 -95.1,-776 c -124.3,-1013.4 -2396.6,-1388.7 -4281,-1525.1 -752,-54.4 -1572.6,-81.3 -2445.2,-81.3"
         style="fill:#371b45;fill-opacity:1;fill-rule:nonzero;stroke:none"
         transform="matrix(0.13333333,0,0,-0.13333333,0,5333.3333)" /><path
         id="path23"
         d="m 7613.37,28074.2 c -177.1,-1444.3 5630.33,-3344.8 12971.33,-4244.9 7341,-900.1 13435.6,-458.9 13612.7,985.3 177.1,1444.3 -5630.4,3344.8 -12971.3,4244.9 -7341.1,900.1 -13435.68,459 -13612.73,-985.3"
         style="fill:#bfbebe;fill-opacity:1;fill-rule:nonzero;stroke:none"
         transform="matrix(0.13333333,0,0,-0.13333333,0,5333.3333)" /><path
         id="path24"
         d="m 24147.3,25779.2 c -1029.6,0 -2176.9,63.4 -3378.8,210.8 -2285.3,280.2 -4304.9,806.9 -5674.6,1339.4 77.3,29.7 151.8,57.8 223.2,84.1 1479.9,-568.8 3765.3,-1006.4 5541.3,-1224.2 1345,-164.9 2642.6,-249.8 3775,-249.7 465.9,0 904,14.3 1305.7,43.4 209.9,15.2 405.9,34.1 588,56.6 45.7,-35.3 93.8,-72.7 143.6,-111.5 -705,-93.8 -1562.9,-148.9 -2523.4,-148.9 m 2939.8,211.8 c -50.4,38.6 -98.8,75.5 -145.1,110.5 18.6,3.3 37.1,6.7 55.3,10.1 48.9,-35.4 99.3,-72.2 150.7,-110 -20.3,-3.6 -40.3,-7.1 -60.9,-10.6 m 399.6,77.2 c -53.8,38.3 -108.6,76.5 -164.5,114.7 607,155.5 931.6,383.7 968.2,682.7 8.5,69.5 18.2,157.1 27.5,261 257.5,-158.6 389.3,-311.1 372.2,-450.8 -28.4,-231.4 -467.2,-446.3 -1203.4,-607.6 M 14268.2,27689 c -675.4,334.4 -1049.4,648.9 -1021,880.3 19.7,160.7 234.5,290.2 608,387.1 -20.7,-127.3 -35.3,-233.6 -45.3,-315.4 -37.1,-302.5 233.2,-591.3 704.6,-858.8 -83.8,-30.6 -165.9,-61.7 -246.3,-93.2"
         style="fill:#dfdfdf;fill-opacity:1;fill-rule:nonzero;stroke:none"
         transform="matrix(0.13333333,0,0,-0.13333333,0,5333.3333)" /><path
         id="path25"
         d="m 11801.9,25762.8 c -164.5,50.5 -325.7,101.6 -483.2,153.1 -3398.31,1112.1 -3574.17,1918.3 -3547.11,2138.9 10.82,88.4 75.85,259.9 379.03,450.5 -160.98,-153.3 -275.61,-337.5 -198.44,-519.8 269.93,-637.8 1689.63,-1354.8 2643.82,-1685.2 177.5,-61.4 361.7,-91.7 544.8,-91.7 342.5,0 681.2,105.9 965.8,312 464.2,336.2 1189.3,786.5 2161.6,1168.4 82.3,-40.8 169,-81.8 260,-123 -220.9,-96 -444.9,-211.3 -664.8,-337 -443.1,-207.3 -845.9,-428.4 -1010.7,-608.7 -51.7,-56.6 -108,-113.2 -167.2,-169.1 -346.8,-256.6 -628.7,-487.6 -795.3,-628.3 -31.5,-21.7 -61,-41.8 -88.3,-60.1"
         style="fill:#908594;fill-opacity:1;fill-rule:nonzero;stroke:none"
         transform="matrix(0.13333333,0,0,-0.13333333,0,5333.3333)" /><path
         id="path26"
         d="m 14528.2,27566 c -91,41.2 -177.7,82.2 -260,123 80.4,31.5 162.5,62.6 246.3,93.2 74.5,-42.3 153.7,-84 237.9,-125.2 -74.2,-27.9 -149,-58.3 -224.2,-91"
         style="fill:#a49ba9;fill-opacity:1;fill-rule:nonzero;stroke:none"
         transform="matrix(0.13333333,0,0,-0.13333333,0,5333.3333)" /><path
         id="path27"
         d="m 29474,23583.7 c -156.2,337.7 -487.3,729.3 -876.4,1113.8 -185.9,331 -879.7,884.4 -1449.6,1304.1 118.9,21 232,43.3 338.7,66.6 824.4,-586.4 1408.3,-1179 1779.7,-1614 338.5,-396.5 831.1,-622.6 1346.7,-622.6 55.1,0 110.4,2.6 165.8,7.8 1004.8,94.7 2393.3,372.7 2908.4,990.6 196.9,236.1 -69.6,600.8 -285.5,831.5 576.7,-415.6 621,-704.7 606.4,-823.7 -27,-220.6 -392.4,-960.4 -3958.8,-1218.5 -187.6,-13.6 -379.4,-25.4 -575.4,-35.6"
         style="fill:#908594;fill-opacity:1;fill-rule:nonzero;stroke:none"
         transform="matrix(0.13333333,0,0,-0.13333333,0,5333.3333)" /><path
         id="path28"
         d="m 27148,26001.6 c -51.4,37.8 -101.8,74.6 -150.7,110 116.1,21.8 224.3,45.5 324.9,71.3 55.9,-38.2 110.7,-76.4 164.5,-114.7 -106.7,-23.3 -219.8,-45.6 -338.7,-66.6"
         style="fill:#a49ba9;fill-opacity:1;fill-rule:nonzero;stroke:none"
         transform="matrix(0.13333333,0,0,-0.13333333,0,5333.3333)" /><path
         id="path29"
         d="m 27628.4,23538.8 c -2108,0 -4527.7,158.4 -7037.8,466.2 -3304.9,405.2 -6394.8,1023.7 -8775.7,1753.8 21.5,18.5 46.7,40 75.3,64.1 221.4,152.6 535.9,383.4 795.3,628.3 344.9,255.2 754.2,535.8 1177.9,777.8 237.6,111.2 487,218.5 717.4,313.4 158.7,-70.7 330.2,-141.9 513.1,-213 -722.1,-277.7 -1674.9,-697.8 -2331.8,-1190.3 -181.7,-136.2 -128.3,-421.2 91.2,-479.7 1159.7,-308.9 4255,-1079.2 7800.5,-1513.9 2952.3,-362 5591.5,-424.5 7061.2,-424.5 273.1,0 505.6,2.2 692.4,5 227.7,3.3 350.2,269.2 204.2,444 -163.1,195.3 -389.2,444.6 -683.1,722.2 -279,263.4 -832.4,704.5 -1257.8,1035.9 145.3,19.4 284.5,40.4 416.4,62.9 440.5,-338.6 1021.4,-810.3 1510.5,-1293.5 1.5,-2.8 3.1,-5.6 4.6,-8.3 226,-417.4 624,-878.8 832,-1107.5 -570.1,-28.7 -1173.8,-42.9 -1805.8,-42.9"
         style="fill:#908594;fill-opacity:1;fill-rule:nonzero;stroke:none"
         transform="matrix(0.13333333,0,0,-0.13333333,0,5333.3333)" /><path
         id="path30"
         d="m 26670.7,25928.1 c -49.8,38.8 -97.9,76.2 -143.6,111.5 147.5,18.3 285.8,38.9 414.9,61.9 46.3,-35 94.7,-71.9 145.1,-110.5 -131.9,-22.5 -271.1,-43.5 -416.4,-62.9 m -11576.8,1401.3 c -182.9,71.1 -354.4,142.3 -513.1,213 76.5,31.6 150.9,61.7 222.1,90.2 157.1,-74.9 329.5,-148.1 514.2,-219.1 -71.4,-26.3 -145.9,-54.4 -223.2,-84.1"
         style="fill:#a49ba9;fill-opacity:1;fill-rule:nonzero;stroke:none"
         transform="matrix(0.13333333,0,0,-0.13333333,0,5333.3333)" /><path
         id="path31"
         d="m 11890.2,25822.9 c 166.6,140.7 448.5,371.7 795.3,628.3 -259.4,-244.9 -573.9,-475.7 -795.3,-628.3 m 1973.2,1406.1 c 219.9,125.7 443.9,241 664.8,337 17.4,-7.9 34.8,-15.7 52.6,-23.6 -230.4,-94.9 -479.8,-202.2 -717.4,-313.4"
         style="fill:#716078;fill-opacity:1;fill-rule:nonzero;stroke:none"
         transform="matrix(0.13333333,0,0,-0.13333333,0,5333.3333)" /><path
         id="path32"
         d="m 14580.8,27542.4 c -17.8,7.9 -35.2,15.7 -52.6,23.6 75.2,32.7 150,63.1 224.2,91 16.6,-8.1 33.5,-16.3 50.5,-24.4 -71.2,-28.5 -145.6,-58.6 -222.1,-90.2"
         style="fill:#7e6e86;fill-opacity:1;fill-rule:nonzero;stroke:none"
         transform="matrix(0.13333333,0,0,-0.13333333,0,5333.3333)" /><path
         id="path33"
         d="m 29434.2,23581.7 c -208,228.7 -606,690.1 -832,1107.5 -1.5,2.7 -3.1,5.5 -4.6,8.3 389.1,-384.5 720.2,-776.1 876.4,-1113.8 -13.2,-0.6 -26.6,-1.3 -39.8,-2"
         style="fill:#716078;fill-opacity:1;fill-rule:nonzero;stroke:none"
         transform="matrix(0.13333333,0,0,-0.13333333,0,5333.3333)" /><path
         id="path34"
         d="m 13903.4,28757.4 c -95.4,-778.2 3033.9,-1802.3 6989.5,-2287.2 3955.5,-485.1 7239.4,-247.4 7334.9,530.8 95.4,778.3 -7062.5,1691.2 -7062.5,1691.2 0,0 -7166.5,843.4 -7261.9,65.2"
         style="fill:#293856;fill-opacity:1;fill-rule:nonzero;stroke:none"
         transform="matrix(0.13333333,0,0,-0.13333333,0,5333.3333)" /><path
         id="path35"
         d="m 13903.4,28757.5 c -11.1,-90.4 21.3,-184.2 93.2,-280.1 1031,496.8 7115.4,-219.6 7115.4,-219.6 0,0 6077.3,-774.8 6957.7,-1505.9 92.9,75.7 147,158.8 158.1,249.2 95.4,778 -7062.6,1691.1 -7062.6,1691.1 0,0 -7166.4,843.2 -7261.8,65.3"
         style="fill:#7a7a7a;fill-opacity:1;fill-rule:nonzero;stroke:none"
         transform="matrix(0.13333333,0,0,-0.13333333,0,5333.3333)" /><path
         id="path36"
         d="m 7597.89,28076.1 h 0.49 -0.49 m 6553.51,1277.8 c -864.5,0 -1676.4,-26.7 -2421,-80.5 -3566.38,-258.2 -3931.78,-998 -3958.81,-1218.6 -27.06,-220.6 148.8,-1026.8 3547.11,-2138.9 2439.5,-798.3 5732.3,-1477 9271.9,-1910.9 3539.5,-434 6898.6,-571 9458.8,-385.7 3566.4,258.1 3931.8,997.9 3958.8,1218.5 27.1,220.6 -148.7,1026.8 -3547.1,2138.9 -2439.5,798.3 -5732.3,1477 -9271.8,1911 -2510.1,307.8 -4929.8,466.2 -7037.9,466.2 m 13478.1,-6165.1 c -2123.2,0 -4557.7,159.3 -7081.5,468.8 -3561.4,436.6 -6877.7,1120.5 -9338.2,1925.7 -1795.44,587.6 -3909.6,1500.8 -3785.62,2514.1 124.24,1013.4 2396.55,1388.6 4280.92,1525 2582.1,186.9 5965.4,49.3 9526.8,-387.3 3561.3,-436.7 6877.6,-1120.6 9338.1,-1925.8 1795.6,-587.6 3909.9,-1500.7 3785.6,-2514.1 -124.2,-1013.3 -2396.5,-1388.6 -4280.9,-1525 -752.2,-54.4 -1572.4,-81.4 -2445.2,-81.4"
         style="fill:#371b45;fill-opacity:1;fill-rule:nonzero;stroke:none"
         transform="matrix(0.13333333,0,0,-0.13333333,0,5333.3333)" /><path
         id="path37"
         d="m 13983.6,28619.8 c -94.1,-767.9 2993.3,-1778.3 6896.1,-2256.8 3902.7,-478.5 7142.9,-244 7237,523.9 329.9,2690.6 -380,8379.6 -6059.9,9076 -5680,696.5 -7743.3,-4652.5 -8073.2,-7343.1"
         style="fill:#80c3ed;fill-opacity:1;fill-rule:nonzero;stroke:none"
         transform="matrix(0.13333333,0,0,-0.13333333,0,5333.3333)" /><path
         id="path38"
         d="m 13983.6,28619.8 c -9.8,-79.6 14.7,-162 71.1,-246.4 485.1,-725.6 3327.9,-1581.7 6824.9,-2010.5 3497.3,-428.8 6462.4,-284.8 7108.4,302.1 75.2,68.2 118.8,142.3 128.6,221.9 329.9,2690.6 -379.8,8379.7 -6059.9,9076.2 -5680,696.4 -7743.2,-4652.7 -8073.1,-7343.3"
         style="fill:#5bc4f1;fill-opacity:1;fill-rule:nonzero;stroke:none"
         transform="matrix(0.13333333,0,0,-0.13333333,0,5333.3333)" /><path
         id="path39"
         d="m 14434.1,28246.7 c -216.3,156.9 -285.7,279 -276.8,351.8 165.1,1346.6 775.4,3328.8 1993.4,4853.8 1273.2,1594.3 2921,2398.3 4908.3,2398.3 163.7,0 329.6,-5.4 498,-16.3 2.5,-1.8 5,-3.5 7.6,-5.2 -165.5,-11.8 -330.2,-35.4 -492.6,-71.3 -85.1,-19 -169.3,-41.3 -252.5,-66.8 -4410.5,-436.4 -6091,-4966 -6385.9,-7371.2 -3,-24.1 -2.8,-48.5 0.5,-73.1"
         style="fill:#ade2f8;fill-opacity:1;fill-rule:nonzero;stroke:none"
         transform="matrix(0.13333333,0,0,-0.13333333,0,5333.3333)" /><path
         id="path40"
         d="m 15541.4,27518.2 c 1259.4,-460.7 3173.3,-889.9 5338.2,-1155.3 3902.9,-478.5 7142.8,-243.9 7237,524 329.9,2690.6 -379.8,8379.7 -6059.9,9076.2 -277.7,34 -546.9,53.7 -807.5,59.6 1771.9,-975.5 2642.8,-3270.8 3069.6,-5197 387.5,-1749 -833.4,-3443.6 -2615.6,-3625.1 -1198.7,-122 -2661.7,-166.1 -4214.7,24.4 -677.9,83.1 -1330.8,182.3 -1947.1,293.2"
         style="fill:#529ed7;fill-opacity:1;fill-rule:nonzero;stroke:none"
         transform="matrix(0.13333333,0,0,-0.13333333,0,5333.3333)" /><path
         id="path41"
         d="m 15541.4,27518.2 c 1259.4,-460.7 3173.3,-889.9 5338.2,-1155.3 3902.9,-478.5 7142.8,-243.9 7237,524 329.9,2690.6 -379.8,8379.7 -6059.9,9076.2 -277.7,34 -546.9,53.7 -807.5,59.6 1771.9,-975.5 2642.8,-3270.8 3069.6,-5197 387.5,-1749 -833.4,-3443.6 -2615.6,-3625.1 -1198.7,-122 -2661.7,-166.1 -4214.7,24.4 -677.9,83.1 -1330.8,182.3 -1947.1,293.2"
         style="fill:#3aa9e0;fill-opacity:1;fill-rule:nonzero;stroke:none"
         transform="matrix(0.13333333,0,0,-0.13333333,0,5333.3333)" /><path
         id="path42"
         d="m 14054.7,28373.4 c 485.1,-725.6 3327.9,-1581.7 6824.9,-2010.5 3497.3,-428.8 6462.4,-284.8 7108.4,302.1 -1577.9,404.5 -3811.6,823.9 -6923.5,1205.4 -3112,381.6 -5380.9,514.3 -7009.8,503"
         style="fill:#371b45;fill-opacity:1;fill-rule:nonzero;stroke:none"
         transform="matrix(0.13333333,0,0,-0.13333333,0,5333.3333)" /><path
         id="path43"
         d="m 13983.6,28619.8 h 0.5 -0.5 m 7075.4,7230.8 c -1987.3,0 -3635.1,-804 -4908.3,-2398.3 -1218,-1525 -1828.3,-3507.2 -1993.4,-4853.8 -19.7,-160.9 343.5,-562.8 1830,-1049.3 1292,-422.8 3037.1,-782.4 4913.7,-1012.5 1876.6,-230.1 3656.8,-302.8 5012.8,-204.6 1559.9,112.9 2009.5,415.2 2029.2,576 165.1,1346.7 51.8,3417.7 -761.6,5191.7 -986,2150.3 -2717.3,3391.6 -5145.9,3689.4 -334,41 -659.7,61.4 -976.5,61.4 m 3574.4,-9911 c -1132.4,-0.1 -2430,84.8 -3775,249.7 -2910.3,356.9 -7189.2,1304.3 -7048.5,2451.7 83,676.6 477.2,3038.7 2067.3,5029.7 709.6,888.5 1549.7,1553.6 2496.9,1976.8 1099.3,491.1 2345.5,655.6 3704,489.1 1358.5,-166.5 2528,-627.3 3476.1,-1369.5 816.9,-639.5 1471.4,-1487.8 1945.3,-2521.5 1062,-2316.1 873.9,-4703.5 790.9,-5380 -58.5,-477 -849.6,-773.9 -2351.3,-882.6 -401.7,-29.1 -839.8,-43.4 -1305.7,-43.4"
         style="fill:#371b45;fill-opacity:1;fill-rule:nonzero;stroke:none"
         transform="matrix(0.13333333,0,0,-0.13333333,0,5333.3333)" /><path
         id="path44"
         d="m 21523.3,26490.8 c 510.1,-53.8 1012.9,-95.7 1501.6,-125.1 49.3,642.6 -403.6,1499 -745.5,2021.8 l -258.6,-850.2 c -40.4,-395.3 -210.3,-750.3 -497.5,-1046.5 z m 1827.2,-543.9 -166.9,9.1 c -700.9,38.1 -1432.7,102 -2175,190 l -542,64.3 455.3,301.1 c 426.8,282.3 663.1,646.6 702.5,1082.9 l 1.9,20.6 501.9,1650.2 236.9,-305.8 c 53.1,-68.6 1297.9,-1692.8 1024,-2849.7 l -38.6,-162.7"
         style="fill:#371b45;fill-opacity:1;fill-rule:nonzero;stroke:none"
         transform="matrix(0.13333333,0,0,-0.13333333,0,5333.3333)" /><path
         id="path45"
         d="m 19474.1,26766.1 c 378.4,-62.2 764.5,-119 1150.8,-169.4 92.1,-11.9 185.4,-23.8 279.1,-35.3 589,-72.4 1176.3,-129.8 1749.2,-171 -113.2,931.7 -520.3,1926 -657.2,2240.8 l -1291.4,143.8 c -214.7,-266.2 -893.4,-1144.5 -1230.5,-2008.9 z m 3615,-805.6 -227.5,14.7 c -654.2,42.3 -1329.3,105.9 -2006.5,189.2 -94.4,11.6 -188.4,23.6 -281.6,35.6 -472.1,61.6 -943.4,132.6 -1401.5,211.3 l -226.6,38.9 69.9,219 c 373.7,1171.2 1407.5,2394.7 1451.3,2446.2 l 68.9,81 1730.2,-192.8 47.5,-101.6 c 27.7,-59.1 677.6,-1461.5 760.8,-2713.9 l 15.1,-227.6"
         style="fill:#371b45;fill-opacity:1;fill-rule:nonzero;stroke:none"
         transform="matrix(0.13333333,0,0,-0.13333333,0,5333.3333)" /><path
         id="path46"
         d="m 18180.8,27005.8 c 721.9,-150.4 1487.6,-280.4 2285.2,-388 290.2,909.7 -58.9,2029.3 -62.7,2041.1 l -4.2,15.3 -10.6,45.5 c -494.1,-667.4 -1490.9,-1308.6 -2207.7,-1713.9 z m 2545.1,-825.7 -152.7,20 c -1064.2,138.8 -2075.3,317.2 -3005.2,530.1 l -530.7,121.6 483.2,250.9 c 1199.8,623 2552.1,1537.5 2749.4,2235.6 l 211,746.8 306,-1312.7 c 39.1,-125.8 420.7,-1414 -2.7,-2449.7 l -58.3,-142.6"
         style="fill:#371b45;fill-opacity:1;fill-rule:nonzero;stroke:none"
         transform="matrix(0.13333333,0,0,-0.13333333,0,5333.3333)" /><path
         id="path47"
         d="m 22038.1,29500.3 v -0.3 l 1,0.9 -1,-0.6"
         style="fill:#e1e79f;fill-opacity:1;fill-rule:nonzero;stroke:none"
         transform="matrix(0.13333333,0,0,-0.13333333,0,5333.3333)" /><path
         id="path48"
         d="m 20017.1,25146.3 c -32.2,-262.6 256.4,-514.1 644.6,-561.6 388.1,-47.6 728.8,126.6 761,389.2 32.2,262.6 -256.3,514 -644.4,561.6 -388.2,47.6 -728.9,-126.7 -761.2,-389.2"
         style="fill:#ffd356;fill-opacity:1;fill-rule:nonzero;stroke:none"
         transform="matrix(0.13333333,0,0,-0.13333333,0,5333.3333)" /><path
         id="path49"
         d="m 21386.1,24857.9 c 19,36.2 31.6,75 36.6,116 8.1,66.2 -4.1,131.6 -33.2,193.3 29.1,-61.7 41.4,-127.1 33.2,-193.3 -5,-41.1 -17.5,-79.9 -36.6,-116 m -1363.1,173.8 c 0,0.1 0,0.2 0,0.4 0,-0.2 0,-0.3 0,-0.4 m -0.1,0.7 c -8.4,37.3 -10.5,75.4 -5.8,113.9 8.9,72.4 41.3,138.2 91.8,194.4 -50.5,-56.2 -82.9,-122 -91.8,-194.4 -4.7,-38.4 -2.5,-76.6 5.8,-113.9 m 929.1,466.6 c -54.9,16.7 -113.1,29.1 -173.7,36.5 60.6,-7.4 118.8,-19.8 173.7,-36.5 m -173.7,36.5 c -20.9,2.6 -41.6,4.5 -62.2,5.8 20.6,-1.3 41.3,-3.2 62.2,-5.8"
         style="fill:#92969f;fill-opacity:1;fill-rule:nonzero;stroke:none"
         transform="matrix(0.13333333,0,0,-0.13333333,0,5333.3333)" /><path
         id="path50"
         d="m 21371.1,24832.3 c -67.6,202.5 -315.8,373.3 -628.6,411.7 -43.1,5.3 -85.5,7.8 -127.1,7.8 -260.2,0 -483.7,-100.1 -582.4,-255.5 -4,11.7 -7.3,23.5 -10,35.4 0,0.1 0,0.2 0,0.4 -0.1,0.1 -0.1,0.2 -0.1,0.3 -8.3,37.3 -10.5,75.5 -5.8,113.9 8.9,72.4 41.3,138.2 91.8,194.4 112,124.8 312.8,202.6 542.3,202.6 21.4,0 43.1,-0.6 64.9,-2 20.6,-1.3 41.3,-3.2 62.2,-5.8 v 0 0 c 60.6,-7.4 118.8,-19.8 173.7,-36.5 208.1,-63.1 369.2,-187 437.5,-331.8 29.1,-61.7 41.3,-127.1 33.2,-193.3 -5,-41 -17.6,-79.8 -36.6,-116 -4.6,-8.7 -9.6,-17.3 -15,-25.6"
         style="fill:#bea456;fill-opacity:1;fill-rule:nonzero;stroke:none"
         transform="matrix(0.13333333,0,0,-0.13333333,0,5333.3333)" /><path
         id="path51"
         d="m 20215.6,25121.9 v 0 c -10.1,-82.6 64.9,-157.8 97.5,-186.3 90.6,-78.9 226.6,-134.5 372.9,-152.4 146.3,-18.1 291.6,3.1 398.6,57.8 38.6,19.8 129.5,74.6 139.6,157.2 10.1,82.7 -64.8,157.9 -97.5,186.3 -90.6,79 -226.4,134.6 -372.8,152.5 -288.7,35.4 -522.2,-84.4 -538.3,-215.1 z m 573.1,-745.1 c -50,0 -100.6,3.1 -151.4,9.3 -226.9,27.9 -435.4,115.9 -586.9,247.9 -170.9,148.9 -255.3,344.5 -231.8,536.6 v 0 c 46.4,377.9 478.7,625.4 984,563.4 226.9,-27.8 435.4,-115.9 586.9,-247.9 170.9,-148.9 255.3,-344.4 231.7,-536.6 -23.5,-192 -152.7,-361.4 -354.4,-464.6 -139,-71 -304.7,-108.1 -478.1,-108.1"
         style="fill:#371b45;fill-opacity:1;fill-rule:nonzero;stroke:none"
         transform="matrix(0.13333333,0,0,-0.13333333,0,5333.3333)" /><path
         id="path52"
         d="m 14802,25987.6 c -44.2,-260.8 232.5,-525.2 618.1,-590.5 385.6,-65.4 733.9,93.1 778.1,353.9 44.2,260.8 -232.5,525.2 -618.1,590.5 -385.5,65.4 -733.9,-93.1 -778.1,-353.9"
         style="fill:#ffd356;fill-opacity:1;fill-rule:nonzero;stroke:none"
         transform="matrix(0.13333333,0,0,-0.13333333,0,5333.3333)" /><path
         id="path53"
         d="m 14879.4,25659.8 c -67.3,90.8 -98.7,192.6 -81.5,293.9 0.1,0.4 0.2,0.8 0.2,1.2 -6.2,-91.2 25.8,-181.8 86.9,-263.2 -1.4,-5.9 -2.5,-11.8 -3.5,-17.8 -1,-4.7 -1.5,-9.4 -2.1,-14.1 m 1316.7,71.4 c -0.5,0.6 -0.9,1.3 -1.4,1.9 1.2,5.2 2.2,10.4 3.1,15.7 -0.4,-5.9 -1,-11.7 -1.7,-17.6"
         style="fill:#92969f;fill-opacity:1;fill-rule:nonzero;stroke:none"
         transform="matrix(0.13333333,0,0,-0.13333333,0,5333.3333)" /><path
         id="path54"
         d="m 14885,25691.7 c -61.1,81.4 -93.1,172 -86.9,263.2 38.1,220.8 294.1,367.7 605.8,367.7 55.9,0 113.6,-4.7 172.1,-14.6 370.1,-62.8 639.9,-309.2 621.8,-559.2 -0.9,-5.3 -1.9,-10.5 -3.1,-15.7 -106.1,141.6 -300.7,255.1 -535.2,294.7 -58.6,9.9 -116.3,14.7 -172.2,14.7 -303.7,0 -554.6,-139.6 -602.3,-350.8"
         style="fill:#bea456;fill-opacity:1;fill-rule:nonzero;stroke:none"
         transform="matrix(0.13333333,0,0,-0.13333333,0,5333.3333)" /><path
         id="path55"
         d="m 14802,25987.6 h 0.5 z m 606,168.5 c -96.5,0 -187.8,-17.5 -262.1,-51.3 -39.5,-17.9 -132.8,-68.5 -146.7,-150.6 -22,-129.9 167.6,-311.4 454.3,-360 145.3,-24.6 291.5,-10.2 400.9,39.6 39.4,17.9 132.7,68.5 146.6,150.6 13.9,82.1 -57.5,160.6 -88.8,190.6 -86.9,83 -220.1,144.7 -365.5,169.3 -46.6,7.9 -93.2,11.8 -138.7,11.8 z m 184.7,-973.7 c -67.8,0 -136.9,5.7 -206,17.5 -502,85 -845.4,445.7 -781.9,821.1 32.3,190.8 169.2,354.1 375.4,447.9 183,83.3 407.9,108 633.3,69.8 225.4,-38.2 429.6,-135.7 575,-274.5 163.8,-156.5 239.2,-355.8 206.9,-546.6 -32.3,-190.8 -169.1,-354.1 -375.4,-447.9 -126.9,-57.7 -273.9,-87.3 -427.3,-87.3"
         style="fill:#371b45;fill-opacity:1;fill-rule:nonzero;stroke:none"
         transform="matrix(0.13333333,0,0,-0.13333333,0,5333.3333)" /><path
         id="path56"
         d="m 10447,27288.7 c -44.3,-260.8 232.3,-525.3 617.8,-590.9 385.5,-65.5 734,92.8 778.3,353.6 44.3,260.7 -232.2,525.3 -617.8,590.9 -385.5,65.5 -734,-92.8 -778.3,-353.6"
         style="fill:#ffd356;fill-opacity:1;fill-rule:nonzero;stroke:none"
         transform="matrix(0.13333333,0,0,-0.13333333,0,5333.3333)" /><path
         id="path57"
         d="m 10751.2,26806.1 c -21.4,11.8 -41.8,24.4 -61.4,37.6 19.6,-13.2 40,-25.7 61.3,-37.6 0,0 0,0 0.1,0 m -61.4,37.7 c -0.4,0.2 -0.8,0.5 -1.2,0.8 0.4,-0.3 0.8,-0.6 1.2,-0.8 m -203.2,217.5 c -0.1,0.2 -0.2,0.4 -0.3,0.5 0.1,-0.1 0.2,-0.3 0.3,-0.5 m -0.6,1.1 c -37.3,72.3 -52.1,149.4 -39.1,226.2 37.4,220.2 291.4,367.4 601.4,368.5 -310,-1.3 -563.9,-148.4 -601.3,-368.4 -13,-76.8 1.8,-154 39,-226.3 m 1289,264.3 c -35.9,52.9 -83.8,102.3 -141.7,146 57.9,-43.7 105.9,-93.1 141.7,-146 m -142.5,146.6 c 0,0 0,0.1 -0.1,0.1 0.1,0 0.1,-0.1 0.1,-0.1"
         style="fill:#92969f;fill-opacity:1;fill-rule:nonzero;stroke:none"
         transform="matrix(0.13333333,0,0,-0.13333333,0,5333.3333)" /><path
         id="path58"
         d="m 10751.1,26806.1 c -21.3,11.9 -41.7,24.4 -61.3,37.6 v 0.1 c -0.4,0.2 -0.8,0.5 -1.2,0.8 -90.3,61.3 -160.1,136 -202,216.7 -0.1,0.2 -0.2,0.4 -0.3,0.5 -0.1,0.2 -0.2,0.4 -0.3,0.6 -37.2,72.3 -52,149.5 -39,226.3 37.4,220 291.3,367.1 601.3,368.4 1.1,0 2.3,0 3.5,0 56.3,0 114.5,-4.9 173.4,-14.9 159.3,-27.1 300.1,-88.1 407.2,-168.8 0.1,0 0.1,-0.1 0.1,-0.1 0.3,-0.2 0.6,-0.4 0.8,-0.6 57.9,-43.7 105.8,-93.1 141.7,-146 5.7,-8.5 11.2,-17.2 16.3,-25.9 -90.6,50.9 -197.3,89 -314.1,108.7 -58.8,10 -116.7,14.8 -172.8,14.8 -311.9,0 -567.9,-147.4 -605.5,-368.3 -14.5,-85.2 5.4,-170.9 52.2,-249.9"
         style="fill:#bea456;fill-opacity:1;fill-rule:nonzero;stroke:none"
         transform="matrix(0.13333333,0,0,-0.13333333,0,5333.3333)" /><path
         id="path59"
         d="m 10447,27288.7 h 0.5 z m 605.7,168.2 c -96.4,0 -187.5,-17.4 -261.8,-51.1 -39.4,-18 -132.8,-68.5 -146.7,-150.6 v 0 c -22.1,-129.9 167.5,-311.5 454.1,-360.2 286.8,-48.6 525.6,60.1 547.7,189.8 22,129.9 -167.5,311.5 -454.2,360.3 -46.7,7.9 -93.5,11.8 -139.1,11.8 z m 187.6,-974.2 c -67.9,0 -137.8,5.8 -209,17.9 -502,85.4 -845.3,446.3 -781.4,821.6 32.4,190.8 169.3,354 375.6,447.8 183.1,83.1 408,107.7 633.4,69.4 501.9,-85.3 845.2,-446.2 781.4,-821.5 -54.7,-322.2 -388.9,-535.2 -800,-535.2"
         style="fill:#371b45;fill-opacity:1;fill-rule:nonzero;stroke:none"
         transform="matrix(0.13333333,0,0,-0.13333333,0,5333.3333)" /><path
         id="path60"
         d="m 26557.6,24546.2 c -20.1,-263.8 -352.6,-453.5 -742.4,-423.7 -390,29.7 -689.7,267.6 -669.6,531.4 20.1,263.8 352.5,453.5 742.4,423.7 389.9,-29.7 689.7,-267.6 669.6,-531.4"
         style="fill:#fdf3a5;fill-opacity:1;fill-rule:nonzero;stroke:none"
         transform="matrix(0.13333333,0,0,-0.13333333,0,5333.3333)" /><path
         id="path61"
         d="m 25153.1,24554.3 c -0.1,0.3 -0.1,0.5 -0.2,0.8 0.1,-0.3 0.1,-0.5 0.2,-0.8 m -0.2,0.8 c -7.3,32.3 -10,65.5 -7.4,99 18.9,245.4 308,426.8 662.6,426.8 0.5,0 1,-0.1 1.5,-0.1 -13.8,0 -27.4,-0.3 -41,-0.8 -336.2,-12.8 -605,-189.7 -623,-426.1 -2.6,-33.4 0,-66.5 7.3,-98.8"
         style="fill:#92969f;fill-opacity:1;fill-rule:nonzero;stroke:none"
         transform="matrix(0.13333333,0,0,-0.13333333,0,5333.3333)" /><path
         id="path62"
         d="m 25302.9,24320.8 c -77.2,67.3 -130.1,147.5 -149.8,233.5 -0.1,0.3 -0.1,0.5 -0.2,0.8 v 0 c -7.3,32.3 -9.9,65.4 -7.3,98.8 18,236.4 286.8,413.3 623,426.1 -334.8,-13.9 -601.7,-190.5 -619.9,-425.9 -2.6,-35.3 0.4,-70.1 8.6,-104 20.1,-83.1 71.1,-160.7 145.1,-226.6 0.2,-0.9 0.3,-1.8 0.5,-2.7"
         style="fill:#bdbb8d;fill-opacity:1;fill-rule:nonzero;stroke:none"
         transform="matrix(0.13333333,0,0,-0.13333333,0,5333.3333)" /><path
         id="path63"
         d="m 31097.9,24756.6 c -20,-263.8 -352.3,-453.6 -742.2,-424.1 -390,29.5 -689.9,267.3 -669.9,531.1 20,263.8 352.3,453.7 742.2,424.1 390,-29.5 689.9,-267.3 669.9,-531.1"
         style="fill:#fdf3a5;fill-opacity:1;fill-rule:nonzero;stroke:none"
         transform="matrix(0.13333333,0,0,-0.13333333,0,5333.3333)" /><path
         id="path64"
         d="m 31097.9,24756.6 h 0.5 -0.5 m -748.9,334.2 c -258.9,0 -454.6,-120.8 -463.8,-242.3 -9.9,-131.3 195.6,-294.6 485.6,-316.6 289.8,-22.1 517.7,108.5 527.7,239.8 9.9,131.4 -195.6,294.6 -485.6,316.6 -21.7,1.7 -43,2.5 -63.9,2.5 m 88.1,-961.4 c -31.8,0 -63.9,1.2 -96.5,3.7 -507.7,38.4 -883,366 -854.3,745.6 28.8,379.7 448.9,646.9 956.8,608.5 507.8,-38.5 883,-366.1 854.2,-745.7 v 0 c -26.9,-355.2 -396.7,-612.1 -860.2,-612.1"
         style="fill:#293856;fill-opacity:1;fill-rule:nonzero;stroke:none"
         transform="matrix(0.13333333,0,0,-0.13333333,0,5333.3333)" /><path
         id="path65"
         d="m 31097.9,24756.6 c -20,-263.8 -352.3,-453.6 -742.2,-424.1 -390,29.5 -689.9,267.3 -669.9,531.1 20,263.8 352.3,453.7 742.2,424.1 390,-29.5 689.9,-267.3 669.9,-531.1"
         style="fill:#ffd356;fill-opacity:1;fill-rule:nonzero;stroke:none"
         transform="matrix(0.13333333,0,0,-0.13333333,0,5333.3333)" /><path
         id="path66"
         d="m 29768.8,25062.6 c 85.7,104.7 230.5,181.5 403.6,212.7 -173.1,-31.3 -317.9,-108.1 -403.6,-212.7"
         style="fill:#293856;fill-opacity:1;fill-rule:nonzero;stroke:none"
         transform="matrix(0.13333333,0,0,-0.13333333,0,5333.3333)" /><path
         id="path67"
         d="m 30063.8,24399 c -236.8,93.8 -392.7,272.1 -378,464.5 5.6,73.1 35,140.5 83,199.1 85.7,104.6 230.5,181.4 403.6,212.7 55.9,10.1 114.8,15.4 175.6,15.4 26.3,0 53,-1 79.9,-3 252.5,-19 467.2,-125.5 581.7,-269.7 -87.7,35.5 -186.6,58.5 -292.5,66.7 -26.9,2 -53.5,3 -79.8,3 -354.4,0 -643.7,-181.7 -662.3,-427.1 -6.9,-93 25.8,-183 88.8,-261.6"
         style="fill:#bea456;fill-opacity:1;fill-rule:nonzero;stroke:none"
         transform="matrix(0.13333333,0,0,-0.13333333,0,5333.3333)" /><path
         id="path68"
         d="m 31097.9,24756.6 h 0.5 z m -748.9,334.2 c -258.9,0 -454.6,-120.8 -463.8,-242.3 -9.9,-131.3 195.6,-294.6 485.6,-316.6 289.8,-22.1 517.7,108.5 527.7,239.8 9.9,131.4 -195.6,294.6 -485.6,316.6 -21.7,1.7 -43,2.5 -63.9,2.5 z m 88.1,-961.4 c -31.7,0 -63.9,1.2 -96.5,3.7 -507.7,38.4 -883,366 -854.3,745.6 28.8,379.7 448.9,646.9 956.8,608.5 507.8,-38.5 883,-366.1 854.2,-745.7 v 0 c -26.9,-355.2 -396.7,-612.1 -860.2,-612.1"
         style="fill:#371b45;fill-opacity:1;fill-rule:nonzero;stroke:none"
         transform="matrix(0.13333333,0,0,-0.13333333,0,5333.3333)" /><path
         id="path69"
         d="m 11671.7,25444.9 c -40.5,0 -81.1,14 -114.2,42.4 -73.2,63.1 -81.4,173.6 -18.4,246.8 1320.5,1532.9 3549.6,2056.5 3643.8,2078 94,21.7 188,-37.3 209.5,-131.5 21.6,-94.2 -37.3,-188.1 -131.5,-209.7 -21.9,-5 -2212.5,-521 -3456.6,-1965.2 -34.6,-40.2 -83.5,-60.8 -132.6,-60.8"
         style="fill:#371b45;fill-opacity:1;fill-rule:nonzero;stroke:none"
         transform="matrix(0.13333333,0,0,-0.13333333,0,5333.3333)" /><path
         id="path70"
         d="m 29517.1,23256.8 c -63.9,0 -125.6,35.2 -156.4,96.2 -858.2,1701.9 -2813,2707.6 -2832.6,2717.5 -86.2,43.7 -120.7,149 -77,235.2 43.6,86.2 148.8,120.8 235,77.1 84.4,-42.6 2076.2,-1065.7 2987.1,-2872.2 43.6,-86.3 8.9,-191.5 -77.4,-235 -25.3,-12.8 -52.2,-18.8 -78.7,-18.8"
         style="fill:#371b45;fill-opacity:1;fill-rule:nonzero;stroke:none"
         transform="matrix(0.13333333,0,0,-0.13333333,0,5333.3333)" /><path
         id="path71"
         d="m 32372,25715 c -41.3,0 -101.6,12.1 -180.6,37.1 -341.2,108.1 -1045.7,481.5 -1431.7,623.7 -504.3,185.7 -1890.5,636.9 -1330.6,636.9 35.1,0 77.7,-1.7 128.7,-5.5 956.2,-69.6 1964.6,-461.3 2579,-931.4 298.6,-228.4 372,-360.8 235.2,-360.8"
         style="fill:#dfdfdf;fill-opacity:1;fill-rule:nonzero;stroke:none"
         transform="matrix(0.13333333,0,0,-0.13333333,0,5333.3333)" /><path
         id="path72"
         d="m 20599,26398.4 c -1081.1,141 -2093.7,322.4 -2986.3,526.8 109.6,57 288.9,152.2 506.1,276.5 804.1,460.3 2127.2,1317.1 2343.5,2082.2 l 131.6,-564.3 c 0,0 85.2,-266.6 140.6,-651.9 67.8,-468.7 91.7,-1113.8 -135.5,-1669.3"
         style="fill:#9ae02b;fill-opacity:1;fill-rule:nonzero;stroke:none"
         transform="matrix(0.13333333,0,0,-0.13333333,0,5333.3333)" /><path
         id="path73"
         d="m 20599,26398.4 c -1081.1,141 -2093.7,322.4 -2986.3,526.8 109.6,57 288.9,152.2 506.1,276.5 180.9,-86.4 399.3,-157 615.3,-145.8 703.7,36.7 1358.8,877.1 2000.4,1011.8 67.8,-468.7 91.7,-1113.8 -135.5,-1669.3"
         style="fill:#4ead33;fill-opacity:1;fill-rule:nonzero;stroke:none"
         transform="matrix(0.13333333,0,0,-0.13333333,0,5333.3333)" /><path
         id="path74"
         d="m 18180.8,27005.8 c 721.9,-150.4 1487.6,-280.4 2285.2,-388 290.2,909.7 -58.9,2029.3 -62.7,2041.1 l -4.2,15.3 -10.6,45.5 c -494.1,-667.4 -1490.9,-1308.6 -2207.7,-1713.9 z m 2545.1,-825.7 -152.7,20 c -1064.2,138.8 -2075.3,317.2 -3005.2,530.1 l -530.7,121.6 483.2,250.9 c 1199.8,623 2552.1,1537.5 2749.4,2235.6 l 211,746.8 306,-1312.7 c 39.1,-125.8 420.7,-1414 -2.7,-2449.7 l -58.3,-142.6"
         style="fill:#371b45;fill-opacity:1;fill-rule:nonzero;stroke:none"
         transform="matrix(0.13333333,0,0,-0.13333333,0,5333.3333)" /><path
         id="path75"
         d="m 22874.4,26174.8 c -635.2,41.1 -1304.6,103.2 -1994.8,188.1 -94.1,11.6 -187.7,23.5 -280.6,35.5 -479.8,62.5 -945.2,133.1 -1393.1,210 81.7,255.8 197.2,515.6 327.1,765.5 453.9,869.1 1085.9,1611.9 1085.9,1611.9 l 1513.1,-168.5 c 0,0 225.2,-481.4 429.2,-1127 144.7,-460.3 279,-1003.8 313.2,-1515.5"
         style="fill:#9ae02b;fill-opacity:1;fill-rule:nonzero;stroke:none"
         transform="matrix(0.13333333,0,0,-0.13333333,0,5333.3333)" /><path
         id="path76"
         d="m 22874.4,26174.8 c -635.2,41.1 -1304.6,103.2 -1994.8,188.1 -94.1,11.6 -187.7,23.5 -280.6,35.5 -479.8,62.5 -945.2,133.1 -1393.1,210 81.7,255.8 197.2,515.6 327.1,765.5 102.4,-235.9 280.6,-494.1 580.2,-566.7 851.2,-206 1825.2,98.9 2448,883.1 144.7,-460.3 279,-1003.8 313.2,-1515.5"
         style="fill:#4ead33;fill-opacity:1;fill-rule:nonzero;stroke:none"
         transform="matrix(0.13333333,0,0,-0.13333333,0,5333.3333)" /><path
         id="path77"
         d="m 20636.6,29144.3 1513.1,-168.6 90,-10.1 36.7,-80.8 c 98.6,-217.1 184.2,-430.9 265.8,-650.2 80.9,-218.6 154.7,-440 221.7,-663.9 66.6,-224.1 123,-451.8 171.3,-682 46.3,-230.8 79.7,-465.5 98.3,-703.3 l 14.2,-181.5 -183.5,11.9 c -617.7,40 -1234,97.3 -1848.3,170.1 -153.6,18.4 -306.9,37.5 -460.2,57.8 l -458.9,69.2 -917.8,138.4 h -0.1 l -166.5,25.1 41.6,180.5 c 27,116.9 67.8,229.1 114.1,338 47.4,108.6 100.4,214 159.3,315.5 58.5,101.9 121,201 188.4,296.5 67.3,95.5 138.1,188.4 215.7,276 29.6,33.5 80.8,36.5 114.2,6.9 26.1,-23.1 33.7,-59.2 21.8,-89.9 l -0.2,-0.4 c -41.9,-107.2 -87,-211.4 -131.1,-315.5 l -130.8,-310.4 -124.5,-308.6 c -41.3,-102.1 -80.5,-204.2 -123.2,-305.1 l -124.9,205.6 h 0.1 l 909.4,-137.1 454.6,-68.6 c 152,-20.1 304.4,-39.1 456.5,-57.3 609,-72.2 1219.7,-129 1831.3,-168.6 l -169.3,-169.7 c -17.4,220.5 -48.5,441.4 -92.7,661.3 -46.1,219.5 -100.2,438.2 -164.6,654.7 -64.6,216.5 -136.3,431.3 -214.8,643.7 -78.6,211.4 -164.2,424.4 -255.6,625.8 l 126.7,-90.9 -1513.1,168.6 c -87.5,9.7 -150.5,88.6 -140.8,176.1 9.8,87.5 88.6,150.5 176.1,140.8"
         style="fill:#371b45;fill-opacity:1;fill-rule:nonzero;stroke:none"
         transform="matrix(0.13333333,0,0,-0.13333333,0,5333.3333)" /><path
         id="path78"
         d="m 23194.4,26155.7 c -682.6,37.1 -1409.4,99.6 -2162.2,188.9 224.4,148.2 442.3,346.3 593.8,606.5 v 0.4 c 104,177.7 176.1,384.9 197.6,624.8 l 383.4,1260.5 c 0,0 619.6,-799.8 893.8,-1649 114.4,-353.5 168.6,-715.7 93.6,-1032.1"
         style="fill:#9ae02b;fill-opacity:1;fill-rule:nonzero;stroke:none"
         transform="matrix(0.13333333,0,0,-0.13333333,0,5333.3333)" /><path
         id="path79"
         d="m 23194.4,26155.7 c -682.6,37.1 -1409.4,99.6 -2162.2,188.9 224.4,148.2 442.3,346.3 593.8,606.5 131.4,-132.7 361,-308 655.9,-308 393.7,0 662.3,169.7 818.9,544.7 114.4,-353.5 168.6,-715.7 93.6,-1032.1"
         style="fill:#4ead33;fill-opacity:1;fill-rule:nonzero;stroke:none"
         transform="matrix(0.13333333,0,0,-0.13333333,0,5333.3333)" /><path
         id="path80"
         d="m 22333,28934.4 c 78.8,-103.7 148.3,-204.1 218.1,-308.7 69.1,-103.9 135.6,-209.5 199.5,-316.9 127.8,-214.6 244.8,-436.6 346.8,-667.4 100.7,-231.4 187.4,-471.7 240.7,-725.9 27.4,-126.7 44.5,-257.6 48.5,-391.1 3.9,-133.3 -5.7,-270 -37,-405.4 -17.6,-76.2 -87.5,-126.8 -162.9,-122.6 l -0.9,0.1 c -726.3,39.7 -1450.7,104.4 -2172.3,189.8 -84,0 -152.1,68 -152.1,152 0,47.9 22.2,90.7 56.9,118.6 l 25.9,20.6 c 92.8,73.8 182.6,148 264.8,228.5 41.3,39.8 81.5,80.7 118.1,124.1 19.1,21.1 37.9,42.4 55,64.9 17.9,22 35.2,44.4 50.9,67.8 67.9,90.7 120.4,190.4 170.4,293 49.8,103.2 92.4,211.5 140.8,327.7 l 1.2,2.8 c 17.6,42.1 65.9,62.1 108,44.5 26.8,-11.1 44.6,-35.2 49.6,-61.6 24.3,-135.5 14.3,-276.4 -19.9,-411.7 -33.6,-135.9 -96,-263.6 -168.7,-383 -18.3,-30 -38.3,-58.6 -59.1,-86.6 -19.9,-28.8 -41.6,-56 -63.7,-82.9 -21.9,-27.2 -45.6,-52.4 -69.3,-77.7 -23.3,-25.8 -48.1,-49.8 -73.2,-73.4 -100.9,-94.1 -211.1,-176.1 -329,-242.3 l -69.1,291.2 c 715.4,-84.6 1433.3,-148.7 2152.1,-187.9 l -163.8,-122.5 c 46.6,206.5 34.6,434.1 -13.2,657.9 -46.9,224.4 -126.2,446.5 -220.6,662.9 -95.5,216.2 -206.6,427.4 -328.9,632.6 -61.1,102.6 -124.8,203.8 -191,303.4 -65.7,98.7 -135.6,199.1 -204.6,290 l -1.9,2.4 c -53.2,70.1 -39.5,170.1 30.5,223.3 70.1,53.3 170.1,39.6 223.4,-30.5"
         style="fill:#371b45;fill-opacity:1;fill-rule:nonzero;stroke:none"
         transform="matrix(0.13333333,0,0,-0.13333333,0,5333.3333)" /><path
         id="path81"
         d="m 21750.6,28504.7 c 127.1,32.2 251.6,66.7 373.6,103.4 1829.1,551.5 3065.7,1613.5 3152.8,2999 127.3,2024 -1230.1,3927 -3254.1,4054.3 -2024.1,127.2 -3609.1,-1590.8 -3736.3,-3614.9 -105.1,-1671.8 971.7,-2689.6 1700,-3252 0,0 225.1,-158.5 589.1,-264.2 309,-89.6 718.3,-141.2 1174.9,-25.6"
         style="fill:#9ae02b;fill-opacity:1;fill-rule:nonzero;stroke:none"
         transform="matrix(0.13333333,0,0,-0.13333333,0,5333.3333)" /><path
         id="path82"
         d="m 18712,30540 c -7.3,16.3 -14.4,32.6 -21.4,49 3.5,-3.9 7.1,-7.8 10.7,-11.6 3.5,-12.5 7.1,-25 10.7,-37.4 m -158.6,2143.2 c 13.9,58.5 29.2,116.7 45.8,174.5 116.2,407.2 296.2,796.2 534.8,1144.6 239,347.8 535.5,655.6 878,897.7 342,242.4 729.8,417.7 1137.3,507.7 215.2,46.9 435.6,69.8 656.2,69.8 197.1,0 394.3,-18.3 588,-54.1 319.5,-58.9 628,-171.1 912.4,-327.8 -305,119.1 -634.1,193.8 -983,215.8 -70.9,4.4 -141,6.6 -210.8,6.6 -1561.7,0 -2831.8,-1101.1 -3319.1,-2561.5 -75.3,-5.1 -143.4,-22.5 -200.7,-51.1 -13.6,-6.8 -26.6,-14.2 -38.9,-22.2"
         style="fill:#cdf095;fill-opacity:1;fill-rule:nonzero;stroke:none"
         transform="matrix(0.13333333,0,0,-0.13333333,0,5333.3333)" /><path
         id="path83"
         d="m 25150.3,30970.7 c -369,-1074.3 -1488.4,-1898.8 -3026.2,-2362.7 -122,-36.6 -246.3,-71.3 -373.5,-103.2 -456.6,-115.9 -865.9,-64.1 -1174.7,25.5 -364.2,105.6 -589.4,264.3 -589.4,264.3 -483.8,373.7 -1121.7,948.4 -1464.4,1782.8 379.7,-548.7 852.7,-960.4 1238.5,-1258.4 0,0 253.4,-178.2 663.5,-297.3 347.9,-100.8 808.5,-159 1322.6,-28.7 143.1,36.3 283.3,74.9 420.4,116.4 1327.8,400.5 2378.2,1039.6 2983.2,1861.3"
         style="fill:#4ead33;fill-opacity:1;fill-rule:nonzero;stroke:none"
         transform="matrix(0.13333333,0,0,-0.13333333,0,5333.3333)" /><path
         id="path84"
         d="m 20491.7,28463.6 c -112.1,24 -223,56.6 -330.6,99.8 -53.7,21.8 -107.4,44.5 -159.8,71.7 -26.5,13.6 -52,27.3 -79.9,44.2 l -8,5.1 -4.9,3.4 -8.7,6.2 -17.5,12.3 -34.9,24.6 c -185.5,132.6 -361.6,271.6 -527.4,428.7 -329.7,312.7 -618.9,678.3 -828.3,1091.5 -56.4,101.1 -97.8,209.8 -143.9,316 -12.2,26.3 -20.9,54.1 -30.2,81.6 l -27.7,82.4 -27.6,82.6 -13.8,41.3 -10.7,42.2 -41.7,169.1 c -6.2,28.3 -15.2,56.2 -19.1,84.9 l -13.6,86 -26.9,172 c -6.3,57.6 -8.8,115.5 -13.3,173.3 -2.9,57.8 -10.2,115.7 -9.5,173.5 l 2.9,173.4 c -0.5,116.1 10.7,230.2 22.1,344.5 24.6,228.5 69.7,454.7 131.1,676.2 123.2,442.9 316,867.3 574.1,1249.8 259.4,381.4 584.4,720.4 962.7,989.6 377.7,269.4 809.8,466.6 1265.4,568.3 456,100.6 930.1,105.1 1388.2,21.6 459.4,-82.3 899,-268.5 1284.4,-528.9 386,-260.8 717.1,-597.2 979.6,-977.8 263.5,-380.5 456.3,-806.6 579.2,-1250.4 122.9,-443.8 175.4,-907.3 150.3,-1366.8 -3.5,-114.4 -18.4,-234.8 -37.2,-350.7 -22.7,-116.1 -48.1,-232 -86.2,-344 -71.1,-225.8 -176.7,-438.8 -302,-636.5 -253.8,-394.9 -592.8,-721.9 -964.9,-987.2 -372.8,-266.4 -778.7,-476.5 -1197.4,-646.2 -210.5,-83.8 -420,-162.3 -641,-219.9 -55.5,-14.8 -111,-29.3 -166.8,-36.2 -55.7,-8.8 -111.6,-16.9 -167.7,-23.4 -111.9,-14.3 -224.3,-24.7 -337.4,-27.5 -44.7,-1.2 -81.8,34.1 -82.9,78.7 -0.9,33.4 18.7,62.6 47.3,75.7 l 4.3,1.8 c 102.2,46.5 205,85.5 308.4,120.4 102.3,37.3 209.5,62.9 307.6,102.6 200.9,73 408.2,142 606.6,225.3 398.5,164.6 781,366.7 1125.7,616.6 344.5,249 649.6,550.3 871.7,901.3 221.8,351.2 352.8,750.6 363.8,1165.6 37.9,844.9 -195.4,1704.6 -675.8,2397.6 -239.8,345.7 -540.1,648.6 -887,881.6 -346.6,233 -738.8,396.7 -1149.3,472.3 -410.4,75.9 -836.7,73.1 -1244.2,-15.7 -407.5,-90 -795.3,-265.3 -1137.3,-507.7 -342.5,-242.1 -639,-549.9 -878,-897.7 -238.6,-348.4 -418.6,-737.4 -534.8,-1144.6 -233.5,-814.4 -209.1,-1709.4 181.8,-2459.8 187,-377.8 454.4,-713.6 753.1,-1019.9 l 113.3,-114.4 c 38.9,-37.2 78.9,-73.3 117.4,-111 78.2,-74.1 159.8,-146.9 239.7,-217 l 56.4,-50.4 c 18,-13.9 39.7,-29 60.9,-43.1 43,-28.5 87.4,-56.7 133.2,-82.8 91.6,-52.2 186.9,-100.2 285,-143.9 l 1,-0.4 c 40.4,-18 58.6,-65.3 40.6,-105.7 -15.7,-35.2 -53.7,-53.5 -89.9,-45.7"
         style="fill:#371b45;fill-opacity:1;fill-rule:nonzero;stroke:none"
         transform="matrix(0.13333333,0,0,-0.13333333,0,5333.3333)" /><path
         id="path85"
         d="m 18476.9,32615.1 c -218.4,-268.3 -393,-973.7 1.3,-1721 394.3,-747.5 1181.9,-827.7 1423.1,-504.5 185.3,248.2 322.5,917.8 -71.8,1665.2 -394.2,747.4 -1129.1,835.1 -1352.6,560.3"
         style="fill:#371b45;fill-opacity:1;fill-rule:nonzero;stroke:none"
         transform="matrix(0.13333333,0,0,-0.13333333,0,5333.3333)" /><path
         id="path86"
         d="m 20055.8,31401.9 c -0.1,0.3 -0.1,0.6 -0.2,0.9 0.1,-0.3 0.1,-0.6 0.2,-0.9 m -0.3,1.8 c -35.2,203.4 -105.9,423.6 -226,651.1 -74.1,140.5 -160.3,257.7 -252.8,353.6 92.5,-95.9 178.7,-213.1 252.9,-353.5 120,-227.5 190.7,-447.8 225.9,-651.2"
         style="fill:#e1f6bf;fill-opacity:1;fill-rule:nonzero;stroke:none"
         transform="matrix(0.13333333,0,0,-0.13333333,0,5333.3333)" /><path
         id="path87"
         d="m 18244,31858.5 c 0.2,7.4 0.5,14.8 0.8,22.1 -0.3,-7.3 -0.6,-14.7 -0.8,-22 0,-0.1 0,-0.1 0,-0.1"
         style="fill:#c3bac7;fill-opacity:1;fill-rule:nonzero;stroke:none"
         transform="matrix(0.13333333,0,0,-0.13333333,0,5333.3333)" /><path
         id="path88"
         d="m 18553.4,32683.2 v 0 c 12.3,8 25.3,15.4 38.9,22.2 -13.6,-6.8 -26.6,-14.2 -38.9,-22.2"
         style="fill:#f0fadf;fill-opacity:1;fill-rule:nonzero;stroke:none"
         transform="matrix(0.13333333,0,0,-0.13333333,0,5333.3333)" /><path
         id="path89"
         d="m 18345.9,32381.9 c 38,95.8 83.4,174.9 130.9,233.2 21.2,26.1 47,48.8 76.6,68.1 v 0 c -29.6,-19.3 -55.4,-42 -76.5,-68.1 -47.6,-58.4 -93,-137.5 -131,-233.2"
         style="fill:#c3bac7;fill-opacity:1;fill-rule:nonzero;stroke:none"
         transform="matrix(0.13333333,0,0,-0.13333333,0,5333.3333)" /><path
         id="path90"
         d="m 20014.8,31016.1 c -32.7,213.7 -104.6,447 -232,688.5 -262.8,498.3 -677,703.4 -990.2,703.4 -156.6,0 -287.9,-51.3 -362.5,-142.8 -32.2,-39.7 -63.6,-88.9 -92.2,-146.4 -9.4,65.9 -15.1,130.4 -17.4,193 -7.6,-23 -14.7,-46.8 -21.4,-71.2 13.7,50.3 29.5,97.5 46.8,141.3 38,95.7 83.4,174.8 131,233.2 21.1,26.1 46.9,48.8 76.5,68.1 12.3,8 25.3,15.4 38.9,22.2 68.8,34.3 153.4,52.7 247.1,52.7 224.9,0 501.7,-105.7 737.3,-349.7 92.5,-95.9 178.7,-213.1 252.8,-353.6 120.1,-227.5 190.8,-447.7 226,-651.1 0,-0.3 0.1,-0.6 0.1,-0.9 0.1,-0.3 0.1,-0.6 0.2,-0.9 22.6,-131.6 30.3,-256.2 26.8,-371 1.3,42.9 1,87.2 -1,132.6 -19.9,-56.1 -42.5,-105.5 -66.8,-147.4 m -1716,1223.2 c 0,0.1 0,0.2 0,0.3 0,-0.1 0,-0.2 0,-0.3"
         style="fill:#c3bac7;fill-opacity:1;fill-rule:nonzero;stroke:none"
         transform="matrix(0.13333333,0,0,-0.13333333,0,5333.3333)" /><path
         id="path91"
         d="m 19474.6,30209.7 c -11,0 -22,0.2 -33.1,0.7 11.1,-0.5 22.1,-0.7 33,-0.7 183.6,0 340.3,64 426.8,179.9 30.5,40.8 59.7,93 85.4,155.1 -25.7,-62.1 -54.9,-114.4 -85.3,-155.2 -86.5,-115.8 -243.3,-179.8 -426.8,-179.8 m -297.8,52 c -0.3,0.1 -0.5,0.2 -0.8,0.3 0.3,-0.1 0.5,-0.2 0.8,-0.3 m -1.1,0.4 c -162.9,56.3 -328.8,159.1 -474.4,315.3 h -0.1 c 145.7,-156.2 311.6,-259 474.5,-315.3"
         style="fill:#6b9b2a;fill-opacity:1;fill-rule:nonzero;stroke:none"
         transform="matrix(0.13333333,0,0,-0.13333333,0,5333.3333)" /><path
         id="path92"
         d="m 18701.3,30577.4 c -3.6,3.8 -7.2,7.7 -10.7,11.6 v 0 c 3.5,-3.9 7.1,-7.8 10.6,-11.6 h 0.1"
         style="fill:#8ca56f;fill-opacity:1;fill-rule:nonzero;stroke:none"
         transform="matrix(0.13333333,0,0,-0.13333333,0,5333.3333)" /><path
         id="path93"
         d="m 18690.6,30589 c -19.8,21.7 -39.3,44.5 -58.3,68.3 19,-23.8 38.4,-46.6 58.3,-68.3 v 0 m -380.8,729.7 c 0,0.1 0,0.3 -0.1,0.4 0.1,-0.1 0.1,-0.3 0.1,-0.4 m -0.8,3 c 0,0.1 0,0.2 -0.1,0.3 0.1,-0.1 0.1,-0.2 0.1,-0.3 m -0.7,2.8 c -0.1,0.4 -0.3,0.9 -0.4,1.4 0.1,-0.5 0.3,-1 0.4,-1.4 m -0.7,2.4 c -50.1,187.9 -68.1,367.5 -63.6,531.7 0,0 0,0 0.1,0 -4.6,-164.2 13.4,-343.8 63.5,-531.7 m -62.8,553.7 c 3.2,80.2 11.9,156.7 24.7,228.5 -9.8,-54.8 -17.1,-112.3 -21.5,-172.1 0,-0.3 0,-0.6 -0.1,-0.8 0,-0.1 0,-0.2 0,-0.3 -1.3,-18.2 -2.4,-36.6 -3.1,-55.3 m 25,229.8 c 0,0.2 0,0.4 0.1,0.6 -0.1,-0.2 -0.1,-0.4 -0.1,-0.6"
         style="fill:#2a1b3b;fill-opacity:1;fill-rule:nonzero;stroke:none"
         transform="matrix(0.13333333,0,0,-0.13333333,0,5333.3333)" /><path
         id="path94"
         d="m 19474.5,30209.7 c -10.9,0 -21.9,0.2 -33,0.7 -84.6,3.4 -174.1,20.2 -264.7,51.3 -0.3,0.1 -0.5,0.2 -0.8,0.3 -0.1,0 -0.2,0.1 -0.3,0.1 -162.9,56.3 -328.8,159.1 -474.5,315.3 -3.5,3.8 -7.1,7.7 -10.6,11.6 -19.9,21.7 -39.3,44.5 -58.3,68.3 -55.8,69.9 -107.6,148.7 -154.1,236.7 -76,144.1 -130.9,286.6 -168.4,424.7 0,0.1 0,0.3 -0.1,0.4 -0.2,0.8 -0.4,1.7 -0.7,2.6 0,0.1 0,0.2 -0.1,0.3 -0.2,0.9 -0.4,1.7 -0.6,2.5 -0.1,0.4 -0.3,0.9 -0.4,1.4 -0.1,0.3 -0.2,0.7 -0.3,1 -50.1,187.9 -68.1,367.5 -63.5,531.7 24.4,98.6 56.9,186.3 93.8,260.2 29.6,-207.5 96.9,-429.7 216.2,-655.8 252.8,-479.5 667.6,-684.5 996.2,-684.5 183.7,0 340.4,64.1 426.9,180 12.8,17.2 25.4,36.4 37.6,57.6 17.4,-113.3 23.7,-221 21.5,-321.5 25.5,98.4 42.5,211.6 46.3,336.3 -5.9,-194.1 -43.8,-360.4 -95.9,-486.2 -25.7,-62.1 -54.9,-114.3 -85.4,-155.1 -86.5,-115.9 -243.2,-179.9 -426.8,-179.9 m -1226.6,1726.2 c 0,0.1 0,0.2 0,0.3 0,-0.1 0,-0.2 0,-0.3 m 0.1,1.1 c 4.4,59.8 11.7,117.3 21.5,172.1 0.1,0.5 0.2,0.9 0.3,1.3 0,0.2 0,0.4 0.1,0.6 8,44.6 17.8,87.5 28.9,128.3 -24.8,-91.4 -42.8,-193 -50.8,-302.3 m 50.8,302.6 c 0.1,0.3 0.2,0.6 0.3,1 -0.1,-0.4 -0.2,-0.7 -0.3,-1"
         style="fill:#2a1b3b;fill-opacity:1;fill-rule:nonzero;stroke:none"
         transform="matrix(0.13333333,0,0,-0.13333333,0,5333.3333)" /><path
         id="path95"
         d="m 18244,31858.6 c 0.2,7.3 0.5,14.7 0.8,22 0.7,18.7 1.8,37.1 3.1,55.3 -1.8,-25.3 -3.1,-51.1 -3.8,-77.3 -0.1,0 -0.1,0 -0.1,0 m 3.9,77.6 c 0.1,0.2 0.1,0.5 0.1,0.8 0,-0.3 0,-0.6 -0.1,-0.8"
         style="fill:#85828f;fill-opacity:1;fill-rule:nonzero;stroke:none"
         transform="matrix(0.13333333,0,0,-0.13333333,0,5333.3333)" /><path
         id="path96"
         d="m 20036.3,30694.6 c 2.2,100.5 -4.1,208.2 -21.5,321.5 24.3,41.9 46.9,91.3 66.8,147.4 2,-45.4 2.3,-89.7 1,-132.6 -3.8,-124.7 -20.8,-237.9 -46.3,-336.3 m -1792.2,1164 c 0.7,26.2 2,52 3.8,77.3 0,0.1 0,0.2 0,0.3 0.1,0.2 0.1,0.5 0.1,0.8 8,109.3 26,210.9 50.8,302.3 0,0.1 0,0.2 0,0.3 0.1,0.3 0.2,0.6 0.3,1 6.7,24.4 13.8,48.2 21.4,71.2 2.3,-62.6 8,-127.1 17.4,-193 -36.9,-73.9 -69.4,-161.6 -93.8,-260.2"
         style="fill:#85828f;fill-opacity:1;fill-rule:nonzero;stroke:none"
         transform="matrix(0.13333333,0,0,-0.13333333,0,5333.3333)" /><path
         id="path97"
         d="m 22947.3,32019 c 140.3,-316.1 124,-1042.6 -452.3,-1660.6 -576.4,-617.9 -1357.5,-489.1 -1505.7,-113.9 -113.6,288 -70.6,970.2 505.7,1588.2 576.3,618 1308.5,510.1 1452.3,186.3"
         style="fill:#371b45;fill-opacity:1;fill-rule:nonzero;stroke:none"
         transform="matrix(0.13333333,0,0,-0.13333333,0,5333.3333)" /><path
         id="path98"
         d="m 20939,30576.1 c 4.5,340.1 143.9,814.8 556,1256.7 62.1,66.5 125.9,124.6 190.6,174.9 -64.7,-50.3 -128.6,-108.5 -190.6,-175 -412,-441.8 -551.5,-916.4 -556,-1256.3 0,-0.1 0,-0.2 0,-0.3 m 2079.7,1108.6 c -7.2,134.4 -33.7,249.2 -71.4,334.3 -24.3,54.7 -65.4,103.3 -119.7,143.2 54.3,-39.9 95.4,-88.5 119.7,-143.2 37.7,-85 64.2,-199.8 71.4,-334.2 0,0 0,-0.1 0,-0.1"
         style="fill:#e1f6bf;fill-opacity:1;fill-rule:nonzero;stroke:none"
         transform="matrix(0.13333333,0,0,-0.13333333,0,5333.3333)" /><path
         id="path99"
         d="m 20939,30576.4 c 4.5,339.9 144,814.5 556,1256.3 62,66.5 125.9,124.7 190.6,175 248.6,193.3 510.1,271.9 732,271.9 166.4,0 310.4,-44.2 410,-117.4 54.3,-39.9 95.4,-88.5 119.7,-143.2 37.7,-85.1 64.2,-199.9 71.4,-334.3 -18.4,-59 -40.5,-118.9 -66.4,-179.3 -12.7,63.9 -30.2,120.4 -51.2,167.7 -68.8,155.1 -272.7,260.7 -529.7,260.7 -279.6,0 -622.2,-124.9 -922.5,-447 -187.1,-200.4 -318,-407.8 -405.6,-606.2 -12,46.3 -20.7,99.4 -25.2,157.8 -53.8,-168.3 -77.2,-325.9 -79,-461.9 0,0 0,-0.1 -0.1,-0.1"
         style="fill:#c3bac7;fill-opacity:1;fill-rule:nonzero;stroke:none"
         transform="matrix(0.13333333,0,0,-0.13333333,0,5333.3333)" /><path
         id="path100"
         d="m 21256.9,29992.7 c -128.7,55.2 -224.7,143.1 -267.6,251.7 -19.4,49.3 -34.3,110 -42.6,180 8.4,-69.9 23.2,-130.7 42.6,-179.9 42.9,-108.6 138.9,-196.6 267.6,-251.8 m 876.1,81.5 c 124.4,67.8 247.2,161.2 362,284.2 34.8,37.4 67.6,75.1 98.4,113.1 -30.8,-38 -63.6,-75.8 -98.5,-113.1 -114.7,-123 -237.5,-216.4 -361.9,-284.2 m -1186.4,350.4 c 0,0.3 0,0.6 -0.1,0.9 0.1,-0.3 0.1,-0.6 0.1,-0.9 m 1647.4,47.6 c 0.6,0.8 1.2,1.5 1.8,2.3 -0.6,-0.8 -1.2,-1.5 -1.8,-2.3 m 2.7,3.3 c 0.3,0.5 0.7,1 1,1.4 -0.3,-0.4 -0.7,-0.9 -1,-1.4 m 1.8,2.3 c 0.3,0.4 0.7,0.9 1,1.3 -0.3,-0.4 -0.7,-0.9 -1,-1.3 m 2.6,3.2 c 0.3,0.4 0.6,0.8 0.9,1.2 -0.3,-0.4 -0.6,-0.8 -0.9,-1.2 m 1.9,2.4 c 0.3,0.4 0.6,0.8 0.9,1.2 -0.3,-0.4 -0.6,-0.8 -0.9,-1.2 m 2.1,2.7 c 0.4,0.5 0.8,1 1.2,1.5 -0.4,-0.5 -0.8,-1 -1.2,-1.5 m 2.3,2.8 c 0.2,0.3 0.5,0.7 0.7,1 -0.2,-0.3 -0.5,-0.6 -0.7,-1 m 2.2,2.9 c 0.3,0.4 0.6,0.7 0.9,1.1 -0.3,-0.4 -0.6,-0.8 -0.9,-1.1 m 2.1,2.6 c 0.3,0.3 0.5,0.6 0.7,0.9 -0.2,-0.3 -0.4,-0.6 -0.7,-0.9 m 2.3,2.9 c 0.1,0.2 0.3,0.4 0.4,0.6 -0.1,-0.2 -0.3,-0.4 -0.4,-0.6 m 2.1,2.7 c 0.2,0.2 0.3,0.4 0.5,0.7 -0.2,-0.3 -0.4,-0.5 -0.5,-0.7 m 2.2,2.8 c 0,0.1 0.1,0.2 0.2,0.3 -0.1,-0.1 -0.1,-0.2 -0.2,-0.3 m 2.1,2.7 c 0.2,0.2 0.2,0.3 0.4,0.5 -0.1,-0.1 -0.3,-0.3 -0.4,-0.5 m 2,2.6 c 0.1,0.1 0.2,0.3 0.4,0.5 -0.2,-0.2 -0.3,-0.3 -0.4,-0.5 m 2.2,2.9 c 0.1,0.1 0.3,0.3 0.4,0.4 -0.2,-0.1 -0.3,-0.3 -0.4,-0.4 m 2,2.6 c 0.1,0.1 0.3,0.3 0.3,0.4 -0.1,-0.2 -0.2,-0.3 -0.3,-0.4 m 2.2,2.8 c 0.1,0.2 0.2,0.3 0.3,0.4 -0.1,-0.1 -0.2,-0.2 -0.3,-0.4 m 2,2.6 c 0.1,0.1 0.2,0.3 0.3,0.4 -0.1,-0.1 -0.2,-0.3 -0.3,-0.4 m 2.2,2.9 c 0.1,0.1 0.1,0.1 0.1,0.2 0,0 0,-0.1 -0.1,-0.2 m 1.9,2.5 c 0.1,0.2 0.3,0.4 0.4,0.5 -0.2,-0.2 -0.3,-0.3 -0.4,-0.5 m 4.1,5.4 c 0.2,0.2 0.3,0.4 0.4,0.5 -0.1,-0.1 -0.3,-0.3 -0.4,-0.5 m 4.2,5.6 c 0.1,0.1 0.1,0.2 0.2,0.2 -0.1,0 -0.1,-0.1 -0.2,-0.2 m 4.1,5.4 c 0,0.2 0.1,0.2 0.2,0.3 -0.1,-0.1 -0.2,-0.1 -0.2,-0.3 m 4,5.6 c 0.1,0 0.1,0 0.1,0.1 0,-0.1 0,-0.1 -0.1,-0.1 m 4,5.4 c 0.1,0.1 0.1,0.1 0.2,0.2 -0.1,-0.1 -0.1,-0.1 -0.2,-0.2 m 2,2.7 c 0,0 0.1,0.1 0.1,0.1 0,0 -0.1,-0.1 -0.1,-0.1 m 4,5.4 c 0,0.1 0,0.1 0.1,0.2 -0.1,-0.1 -0.1,-0.2 -0.1,-0.2 m 3.9,5.5 c 0.1,0 0.1,0 0.1,0.1 l -0.1,-0.1 m 3.9,5.4 c 0.1,0.1 0.1,0.1 0.1,0.2 0,-0.1 0,-0.1 -0.1,-0.2 m 3.9,5.5 c 0,0 0.1,0.1 0.1,0.1 0,0 0,-0.1 -0.1,-0.1 m 5.8,8.2 c 0.1,0.1 0,0 0.1,0 h -0.1 m 3.8,5.4 c 0.1,0 0.1,0.1 0.1,0.1 0,0 0,-0.1 -0.1,-0.1 m 3.8,5.4 c 0,0.1 0.1,0.2 0.2,0.3 -0.1,-0.1 -0.2,-0.2 -0.2,-0.3 m 3.7,5.3 c 0.1,0.2 0.2,0.3 0.3,0.5 -0.1,-0.1 -0.2,-0.3 -0.3,-0.5 m 3.7,5.4 c 0.1,0.2 0.3,0.5 0.5,0.7 -0.2,-0.2 -0.4,-0.5 -0.5,-0.7 m 1.9,2.9 c 0.1,0.1 0.1,0.1 0.2,0.2 -0.1,-0.1 -0.1,-0.1 -0.2,-0.2 m 1.8,2.5 c 0.2,0.3 0.4,0.6 0.6,0.9 -0.2,-0.3 -0.4,-0.6 -0.6,-0.9 m 1.7,2.6 c 0.2,0.2 0.3,0.5 0.5,0.8 -0.2,-0.3 -0.3,-0.6 -0.5,-0.8 m 1.9,2.9 c 0.3,0.4 0.6,0.7 0.8,1.1 -0.2,-0.4 -0.5,-0.7 -0.8,-1.1 m 1.6,2.3 c 0.2,0.3 0.6,0.8 0.8,1.1 -0.3,-0.4 -0.5,-0.7 -0.8,-1.1 m 2.1,3.2 c 0.3,0.3 0.5,0.7 0.8,1.1 -0.3,-0.4 -0.5,-0.8 -0.8,-1.1 m 1.7,2.4 c 0.2,0.4 0.5,0.7 0.7,1.1 -0.2,-0.4 -0.5,-0.8 -0.7,-1.1 m 1.6,2.5 c 0.4,0.6 0.9,1.3 1.3,1.9 -0.4,-0.7 -0.9,-1.3 -1.3,-1.9 m 1.9,2.9 c 0.3,0.4 0.6,0.8 0.9,1.3 -0.3,-0.5 -0.6,-0.9 -0.9,-1.3 m 1.5,2.1 c 0.6,0.9 1.1,1.8 1.7,2.7 -0.6,-0.9 -1.1,-1.8 -1.7,-2.7 m 2.1,3.3 c 0.4,0.5 0.7,1 1.1,1.6 -0.4,-0.6 -0.7,-1.1 -1.1,-1.6 m 1.2,1.8 c 0.8,1.2 1.5,2.3 2.3,3.5 -0.7,-1.2 -1.5,-2.4 -2.3,-3.5 m 2.4,3.6 c 0.4,0.6 0.8,1.2 1.2,1.8 -0.4,-0.6 -0.8,-1.2 -1.2,-1.8 m 1.3,2 c 2.4,3.7 4.8,7.4 7.2,11.1 -2.4,-3.7 -4.8,-7.5 -7.2,-11.1 m 7.2,11.1 c 186.6,290 270.8,585.6 290.4,838.5 0,0.1 0,0.2 0,0.3 0,0.3 0,0.6 0.1,0.9 5.1,67 5.7,130.9 2.5,191 0,0 0,0 0,0 15.5,-286.9 -56.7,-663.3 -293,-1030.7"
         style="fill:#6b9b2a;fill-opacity:1;fill-rule:nonzero;stroke:none"
         transform="matrix(0.13333333,0,0,-0.13333333,0,5333.3333)" /><path
         id="path101"
         d="m 21588,29929 c -122.8,0 -235.9,22.9 -331.1,63.7 -128.7,55.2 -224.7,143.2 -267.6,251.8 -19.4,49.2 -34.2,110 -42.6,179.9 0,0.1 0,0.1 -0.1,0.2 0,0.3 0,0.6 -0.1,0.9 -5.5,46.5 -8.2,97 -7.4,151 23.9,97.3 58.1,199.5 104.2,304.1 6.4,-24.5 13.7,-47.1 21.8,-67.6 74.7,-189.1 310,-315.6 598.8,-315.6 284.5,0 620.9,122.7 906.8,429.3 175.1,187.9 298.5,385.5 381.6,578.7 16,-81 24.2,-174 21.9,-275.3 21.9,91 35.4,179.1 41.9,262.5 -19.6,-252.9 -103.8,-548.5 -290.4,-838.5 0,0 0,0 0,0 -2.4,-3.7 -4.8,-7.4 -7.2,-11.1 -0.1,-0.1 -0.1,-0.1 -0.1,-0.2 -0.4,-0.6 -0.8,-1.2 -1.2,-1.8 0,-0.1 0,-0.1 -0.1,-0.1 -0.8,-1.2 -1.5,-2.3 -2.3,-3.5 0,-0.1 -0.1,-0.1 -0.1,-0.2 -0.4,-0.6 -0.7,-1.1 -1.1,-1.6 -0.1,-0.2 -0.3,-0.4 -0.4,-0.6 -0.6,-0.9 -1.1,-1.8 -1.7,-2.7 -0.2,-0.3 -0.4,-0.5 -0.6,-0.8 -0.3,-0.5 -0.6,-0.9 -0.9,-1.3 -0.2,-0.4 -0.4,-0.7 -0.6,-1 -0.4,-0.6 -0.9,-1.3 -1.3,-1.9 -0.3,-0.5 -0.6,-0.9 -0.9,-1.4 -0.2,-0.4 -0.5,-0.7 -0.7,-1.1 -0.4,-0.5 -0.6,-0.9 -0.9,-1.3 -0.3,-0.4 -0.5,-0.8 -0.8,-1.1 -0.4,-0.7 -0.9,-1.4 -1.3,-2.1 -0.2,-0.3 -0.6,-0.8 -0.8,-1.1 -0.2,-0.4 -0.5,-0.8 -0.8,-1.2 -0.2,-0.4 -0.5,-0.7 -0.8,-1.1 -0.4,-0.7 -0.9,-1.4 -1.4,-2.1 -0.2,-0.3 -0.3,-0.6 -0.5,-0.8 -0.4,-0.6 -0.8,-1.1 -1.1,-1.7 -0.2,-0.3 -0.4,-0.6 -0.6,-0.9 -0.6,-0.7 -1.1,-1.5 -1.6,-2.3 -0.1,-0.1 -0.1,-0.1 -0.2,-0.2 -0.5,-0.7 -0.9,-1.4 -1.4,-2.2 -0.2,-0.2 -0.4,-0.5 -0.5,-0.7 -1.2,-1.6 -2.3,-3.2 -3.4,-4.9 -0.1,-0.2 -0.2,-0.3 -0.3,-0.5 -1.2,-1.7 -2.4,-3.3 -3.5,-5 -0.1,-0.1 -0.2,-0.2 -0.2,-0.3 -1.3,-1.8 -2.5,-3.5 -3.7,-5.3 0,0 0,-0.1 -0.1,-0.1 -1.2,-1.8 -2.5,-3.6 -3.7,-5.4 -0.1,0 0,0.1 -0.1,0 -1.9,-2.7 -3.7,-5.4 -5.7,-8.1 0,0 -0.1,-0.1 -0.1,-0.1 -1.2,-1.8 -2.5,-3.6 -3.8,-5.3 0,-0.1 0,-0.1 -0.1,-0.2 -1.2,-1.8 -2.5,-3.5 -3.8,-5.3 0,-0.1 0,-0.1 -0.1,-0.1 -1.2,-1.8 -2.5,-3.5 -3.8,-5.3 -0.1,-0.1 -0.1,-0.1 -0.1,-0.2 -1.3,-1.8 -2.6,-3.5 -3.9,-5.3 0,0 -0.1,-0.1 -0.1,-0.1 -0.6,-0.8 -1.2,-1.7 -1.8,-2.5 -0.1,-0.1 -0.1,-0.1 -0.2,-0.2 -1.3,-1.8 -2.6,-3.6 -3.9,-5.3 0,-0.1 0,-0.1 -0.1,-0.1 -1.2,-1.8 -2.5,-3.5 -3.8,-5.3 -0.1,-0.1 -0.2,-0.1 -0.2,-0.3 -1.3,-1.7 -2.6,-3.4 -3.9,-5.2 -0.1,0 -0.1,-0.1 -0.2,-0.2 -1.2,-1.6 -2.5,-3.4 -3.8,-5.1 -0.1,-0.1 -0.2,-0.3 -0.4,-0.5 -1.2,-1.6 -2.5,-3.3 -3.7,-4.9 -0.1,-0.1 -0.3,-0.3 -0.4,-0.5 -0.6,-0.7 -1.2,-1.5 -1.8,-2.3 0,-0.1 0,-0.1 -0.1,-0.2 -0.6,-0.8 -1.3,-1.7 -1.9,-2.5 -0.1,-0.1 -0.2,-0.3 -0.3,-0.4 -0.6,-0.7 -1.1,-1.5 -1.7,-2.2 -0.1,-0.1 -0.2,-0.2 -0.3,-0.4 -0.6,-0.8 -1.2,-1.6 -1.9,-2.4 0,-0.1 -0.2,-0.3 -0.3,-0.4 -0.5,-0.8 -1.1,-1.5 -1.6,-2.2 -0.1,-0.1 -0.3,-0.3 -0.4,-0.4 -0.6,-0.8 -1.2,-1.6 -1.8,-2.4 -0.2,-0.2 -0.3,-0.4 -0.4,-0.5 -0.6,-0.7 -1.1,-1.4 -1.6,-2.1 -0.2,-0.2 -0.2,-0.3 -0.4,-0.5 -0.6,-0.8 -1.3,-1.6 -1.9,-2.4 -0.1,-0.1 -0.2,-0.2 -0.2,-0.3 -0.6,-0.7 -1.1,-1.4 -1.7,-2.1 -0.2,-0.3 -0.3,-0.5 -0.5,-0.7 -0.6,-0.7 -1.1,-1.4 -1.7,-2.1 -0.1,-0.2 -0.3,-0.4 -0.4,-0.6 -0.5,-0.7 -1.1,-1.3 -1.6,-2 -0.2,-0.3 -0.4,-0.6 -0.7,-0.9 -0.4,-0.5 -0.8,-1 -1.2,-1.5 -0.3,-0.4 -0.6,-0.7 -0.9,-1.1 -0.5,-0.7 -1,-1.3 -1.5,-1.9 -0.2,-0.3 -0.5,-0.7 -0.7,-1 -0.4,-0.4 -0.7,-0.9 -1.1,-1.3 -0.4,-0.5 -0.8,-1 -1.2,-1.5 -0.4,-0.5 -0.8,-1 -1.2,-1.5 -0.3,-0.4 -0.6,-0.8 -0.9,-1.2 -0.4,-0.4 -0.7,-0.8 -1,-1.2 -0.3,-0.4 -0.6,-0.8 -0.9,-1.2 -0.5,-0.6 -1.1,-1.3 -1.6,-1.9 -0.3,-0.4 -0.7,-0.9 -1,-1.3 -0.3,-0.3 -0.5,-0.6 -0.8,-0.9 -0.3,-0.4 -0.7,-0.9 -1,-1.4 -0.3,-0.3 -0.6,-0.6 -0.9,-1 -0.6,-0.8 -1.2,-1.5 -1.8,-2.3 -0.2,-0.2 -0.4,-0.5 -0.6,-0.7 -30.8,-38 -63.6,-75.7 -98.4,-113.1 -114.8,-123 -237.6,-216.4 -362,-284.2 -185.6,-101.1 -374.6,-145.2 -545,-145.2 m 1428.1,1563.9 c 0,0.3 0,0.6 0.1,0.9 -0.1,-0.3 -0.1,-0.6 -0.1,-0.9"
         style="fill:#2a1b3b;fill-opacity:1;fill-rule:nonzero;stroke:none"
         transform="matrix(0.13333333,0,0,-0.13333333,0,5333.3333)" /><path
         id="path102"
         d="m 23016.1,31492.6 c 0,0.1 0,0.2 0,0.3 0,-0.1 0,-0.2 0,-0.3 m 0.1,1.2 c 5.1,67 5.7,130.9 2.5,190.9 0,0 0,0.1 0,0.1 3.2,-60.1 2.6,-124 -2.5,-191"
         style="fill:#99a98a;fill-opacity:1;fill-rule:nonzero;stroke:none"
         transform="matrix(0.13333333,0,0,-0.13333333,0,5333.3333)" /><path
         id="path103"
         d="m 20939.1,30576.5 c 1.8,136 25.2,293.6 79,461.9 4.5,-58.4 13.2,-111.5 25.2,-157.8 -46.1,-104.6 -80.3,-206.8 -104.2,-304.1 m 2035.1,653.6 c 2.3,101.3 -5.9,194.3 -21.9,275.3 25.9,60.4 48,120.3 66.4,179.3 3.2,-60 2.6,-123.9 -2.5,-190.9 -0.1,-0.3 -0.1,-0.6 -0.1,-0.9 0,-0.1 0,-0.2 0,-0.3 -6.5,-83.4 -20,-171.5 -41.9,-262.5"
         style="fill:#85828f;fill-opacity:1;fill-rule:nonzero;stroke:none"
         transform="matrix(0.13333333,0,0,-0.13333333,0,5333.3333)" /><path
         id="path104"
         d="m 18476.9,32615.1 h 0.5 z m 363.1,-7.1 c -109.7,0 -201.4,-31.7 -246.8,-87.5 v 0 c -159,-195.5 -364,-833 17.6,-1556.4 218.7,-414.5 562.6,-582.9 811.5,-602.4 160.4,-12.4 294.6,31.5 358.8,117.6 135.8,181.8 293.7,789.1 -84.2,1505.5 -279.6,529.9 -681,608.7 -797.5,620.2 -20.2,2 -40.1,3 -59.4,3 z m 633.5,-2548.3 c -24.5,0 -49.4,1 -74.5,2.9 -425.7,33.3 -819.5,317.9 -1053.5,761.5 -435.4,825.3 -221.8,1594.6 15,1885.7 119.7,147.1 327,217.7 568.5,193.8 411.2,-40.7 797.4,-331.9 1033.2,-778.8 431.9,-818.7 272.1,-1539.9 59.4,-1825 -114.2,-152.9 -315.6,-240.1 -548.1,-240.1"
         style="fill:#371b45;fill-opacity:1;fill-rule:nonzero;stroke:none"
         transform="matrix(0.13333333,0,0,-0.13333333,0,5333.3333)" /><path
         id="path105"
         d="m 22419.1,32129.2 c -179.7,0 -496.9,-58.3 -814.4,-398.8 -552.4,-592.3 -559.1,-1219.8 -475.8,-1430.8 39.4,-100 157.4,-177.5 315.5,-207.5 245.4,-46.5 621.3,26 940.9,368.7 557.8,598 527.1,1267 424.9,1497.4 -34.4,77.3 -139.1,139.3 -273.4,161.9 -25.8,4.3 -66.1,9.1 -117.7,9.1 z m -825.6,-2350.9 c -68.8,0 -137.3,6.2 -205,19 -259.8,49.3 -461.2,195.8 -538.7,392.1 -130.6,330.9 -95.7,1068.8 535.5,1745.6 344.6,369.5 793.6,549.3 1201.1,480.9 239.5,-40.2 421,-162.7 497.9,-336 152.3,-343 156.8,-1141.4 -479.6,-1823.8 -286.9,-307.6 -653.1,-477.8 -1011.2,-477.8"
         style="fill:#371b45;fill-opacity:1;fill-rule:nonzero;stroke:none"
         transform="matrix(0.13333333,0,0,-0.13333333,0,5333.3333)" /><path
         id="path106"
         d="m 20460.1,30356.1 c 17,-55.1 10.3,-110.8 -14.9,-124.4 -25.2,-13.6 -59.4,20.1 -76.3,75.2 -17,55.1 -10.3,110.8 14.9,124.4 25.2,13.6 59.4,-20.1 76.3,-75.2"
         style="fill:#371b45;fill-opacity:1;fill-rule:nonzero;stroke:none"
         transform="matrix(0.13333333,0,0,-0.13333333,0,5333.3333)" /><path
         id="path107"
         d="m 20538.2,30345.7 c -30.8,-48.8 -39,-104.2 -18.2,-124 20.7,-19.7 62.5,3.8 93.4,52.6 30.7,48.7 38.9,104.2 18.1,124 -20.7,19.6 -62.5,-3.9 -93.3,-52.6"
         style="fill:#371b45;fill-opacity:1;fill-rule:nonzero;stroke:none"
         transform="matrix(0.13333333,0,0,-0.13333333,0,5333.3333)" /><path
         id="path108"
         d="m 20778.7,29765.6 c -31.6,-237 -210.4,-408.9 -399.2,-383.7 -189,25.2 -316.4,237.9 -284.7,474.9 4.7,35.8 24.5,64.3 54.3,85.6 137.8,99.3 492.6,52 599.6,-79.9 23.2,-28.4 34.8,-61.1 30,-96.9"
         style="fill:#371b45;fill-opacity:1;fill-rule:nonzero;stroke:none"
         transform="matrix(0.13333333,0,0,-0.13333333,0,5333.3333)" /><path
         id="path109"
         d="m 20748.7,29862.5 c -69.4,-76.7 -189.6,-118.9 -318.7,-101.7 -129.2,17.2 -234,89.5 -280.9,181.6 137.8,99.3 492.6,52 599.6,-79.9"
         style="fill:#ffffff;fill-opacity:1;fill-rule:nonzero;stroke:none"
         transform="matrix(0.13333333,0,0,-0.13333333,0,5333.3333)" /><path
         id="path110"
         d="m 20778.7,29765.7 h 0.5 z m -536.8,58.6 c -7.6,-75.7 7.2,-150.6 41.1,-207.3 17.3,-28.8 55.3,-78.3 116.2,-86.4 101.7,-13.5 204.6,96.4 228.9,242.2 -20.4,20 -86.1,54.2 -187.5,67.7 -101.6,13.5 -173.8,-2.3 -198.7,-16.2 z m 173.7,-594.8 c -18.6,0 -37.2,1.2 -56,3.8 -135.6,18 -257.3,101.7 -333.9,229.5 -71.1,118.7 -99.4,265.7 -79.7,413.9 26.1,195.4 240.5,300.3 534.2,261.2 293.5,-39.2 473.2,-196.7 447.2,-392 v 0 c -39.6,-296.6 -263,-516.4 -511.8,-516.4"
         style="fill:#371b45;fill-opacity:1;fill-rule:nonzero;stroke:none"
         transform="matrix(0.13333333,0,0,-0.13333333,0,5333.3333)" /><path
         id="path111"
         d="m 26758.8,27776.3 c -244.9,0 -468.6,239.7 -489.3,534.1 -72.2,1026.5 -191.4,1997.4 -606.4,3050.1 -176.9,448.6 -5.1,863 320.4,863 231.1,0 539.7,-209.2 855.9,-763.5 891.2,-1562.8 535.5,-2789.7 535.5,-2789.7 -107.4,-656.8 -372.3,-894.1 -616.1,-894"
         style="fill:#9dd4f0;fill-opacity:1;fill-rule:nonzero;stroke:none"
         transform="matrix(0.13333333,0,0,-0.13333333,0,5333.3333)" /><path
         id="path112"
         d="m 25506.2,32415.8 c -27.1,0 -54.4,1.7 -81.2,4.8 -26.2,203.1 -66.9,404.4 -121.6,601.7 -81.3,293.5 -193.2,579.3 -335.9,849.3 29.9,5.2 61.2,7.8 93.6,7.8 355.9,0 836.7,-313.2 870.7,-899.5 25.6,-441.7 -197.5,-564.1 -425.6,-564.1"
         style="fill:#9dd4f0;fill-opacity:1;fill-rule:nonzero;stroke:none"
         transform="matrix(0.13333333,0,0,-0.13333333,0,5333.3333)" /><path
         id="path113"
         d="m 25044.6,32568.6 c -366,274.9 -413.7,757.3 -342.4,1038.5 162.1,-327 276.9,-678.1 342.4,-1038.5"
         style="fill:#cdf095;fill-opacity:1;fill-rule:nonzero;stroke:none"
         transform="matrix(0.13333333,0,0,-0.13333333,0,5333.3333)" /><path
         id="path114"
         d="m 25425,32420.6 c -127.6,14.9 -247.6,61.4 -316.1,104 -22.4,14 -43.8,28.7 -64.3,44 -65.5,360.4 -180.3,711.5 -342.4,1038.5 25.1,98.6 64.7,172.5 110.5,204 43.9,30.3 96.6,50.4 154.8,60.5 142.7,-270 254.6,-555.8 335.9,-849.3 54.7,-197.3 95.4,-398.6 121.6,-601.7"
         style="fill:#9b8da2;fill-opacity:1;fill-rule:nonzero;stroke:none"
         transform="matrix(0.13333333,0,0,-0.13333333,0,5333.3333)" /><path
         id="path115"
         d="m 26560.9,24546.2 c -20.2,-263.8 -352.6,-453.5 -742.5,-423.7 -389.9,29.7 -689.7,267.6 -669.6,531.4 20.1,263.8 352.6,453.5 742.5,423.7 389.9,-29.7 689.7,-267.6 669.6,-531.4"
         style="fill:#ffd356;fill-opacity:1;fill-rule:nonzero;stroke:none"
         transform="matrix(0.13333333,0,0,-0.13333333,0,5333.3333)" /><path
         id="path116"
         d="m 26444.7,24840.2 c -119.6,127.5 -320.4,219.7 -553.4,237.4 -9.8,0.8 -19.5,1.4 -29.2,1.9 -17.7,0.9 -35.2,1.3 -52.5,1.3 0.6,0 1.1,0.1 1.7,0.1 26.4,0 53.2,-1.1 80.2,-3.1 233,-17.9 433.8,-110 553.2,-237.6"
         style="fill:#92969f;fill-opacity:1;fill-rule:nonzero;stroke:none"
         transform="matrix(0.13333333,0,0,-0.13333333,0,5333.3333)" /><path
         id="path117"
         d="m 25862.1,25079.5 c -17.2,0.8 -34.2,1.2 -51.1,1.2 -0.6,0 -1.2,0 -1.8,0 -0.5,0 -1,0 -1.5,0 -13.1,0 -26.1,-0.2 -39.1,-0.7 13.6,0.5 27.2,0.8 41,0.8 17.3,0 34.8,-0.4 52.5,-1.3"
         style="fill:#727a89;fill-opacity:1;fill-rule:nonzero;stroke:none"
         transform="matrix(0.13333333,0,0,-0.13333333,0,5333.3333)" /><path
         id="path118"
         d="m 25157.3,24550.1 c -8.2,33.9 -11.2,68.7 -8.6,104 18.2,235.4 285.1,412 619.9,425.9 13,0.5 26,0.7 39.1,0.7 0.5,0 1,0 1.5,0 -353.4,-0.6 -641.7,-181.7 -660.4,-426.8 -2.7,-35.2 0.4,-69.9 8.5,-103.8"
         style="fill:#90937c;fill-opacity:1;fill-rule:nonzero;stroke:none"
         transform="matrix(0.13333333,0,0,-0.13333333,0,5333.3333)" /><path
         id="path119"
         d="m 26445.4,24839.5 c -0.2,0.2 -0.4,0.4 -0.6,0.6 0.2,-0.2 0.4,-0.4 0.6,-0.6"
         style="fill:#92969f;fill-opacity:1;fill-rule:nonzero;stroke:none"
         transform="matrix(0.13333333,0,0,-0.13333333,0,5333.3333)" /><path
         id="path120"
         d="m 25306.1,24320.8 c -75.9,66.2 -128.3,144.9 -148.8,229.3 -8.1,33.9 -11.2,68.6 -8.5,103.8 18.7,245.1 307,426.2 660.4,426.8 0.6,0 1.2,0 1.8,0 16.9,0 33.9,-0.4 51.1,-1.2 9.7,-0.5 19.4,-1.1 29.2,-1.9 233,-17.7 433.8,-109.9 553.4,-237.4 0,-0.1 0.1,-0.1 0.1,-0.1 0.2,-0.2 0.4,-0.4 0.6,-0.6 59.7,-64 99,-136.9 111.6,-213.9 -121.5,106.7 -304.1,181.8 -512.1,197.7 -27,2.1 -53.7,3.1 -80,3.1 -354.4,0 -643.5,-181.4 -662.4,-426.8 -1.9,-26.5 -0.7,-53 3.6,-78.8"
         style="fill:#bea456;fill-opacity:1;fill-rule:nonzero;stroke:none"
         transform="matrix(0.13333333,0,0,-0.13333333,0,5333.3333)" /><path
         id="path121"
         d="m 26560.9,24546.2 h 0.5 z m -749,334.4 c -124.1,0 -242.3,-27.6 -331.4,-78.4 -37.6,-21.5 -125.9,-80.5 -132.3,-163.5 -10,-131.3 195.5,-294.7 485.4,-316.8 289.9,-22 517.8,108.2 527.9,239.5 6.3,83 -72,154.7 -106,181.6 -94.1,74.7 -232.4,124 -379.4,135.2 -21.5,1.6 -42.9,2.4 -64.2,2.4 z m 88.6,-961.3 c -32,0 -64.5,1.2 -97.3,3.8 -507.7,38.7 -882.7,366.4 -853.8,746 14.7,193.1 136.1,368.2 332.9,480.5 174.5,99.6 396.2,144.8 624.2,127.4 228,-17.3 440.2,-95.7 597.7,-220.7 177.4,-140.8 270.8,-332.3 256.1,-525.3 v 0 c -27.1,-355.1 -396.7,-611.7 -859.8,-611.7"
         style="fill:#371b45;fill-opacity:1;fill-rule:nonzero;stroke:none"
         transform="matrix(0.13333333,0,0,-0.13333333,0,5333.3333)" /><path
         id="path136"
         d="m 16027,25863.6 c 1.8,-120.8 -94.8,-220.1 -215.6,-221.8 -120.7,-1.7 -220,94.8 -221.7,215.6 -1.8,120.8 94.8,220.1 215.5,221.8 120.8,1.7 220.1,-94.8 221.8,-215.6"
         style="fill:#ffffff;fill-opacity:1;fill-rule:nonzero;stroke:none"
         transform="matrix(0.13333333,0,0,-0.13333333,0,5333.3333)" /></g></g></svg>
